<svg width="3008" height="1704" viewBox="0 0 3008 1704" fill="none" xmlns="http://www.w3.org/2000/svg">
<path d="M14.4886 141V121.824C14.4886 116 15.5185 109.821 17.5781 103.287C19.7088 96.6818 22.7628 90.3253 26.7401 84.2173C30.7884 78.0383 35.6534 72.6761 41.3352 68.1307L54.9716 79.2102C50.4972 85.6023 46.5909 92.2784 43.2528 99.2386C39.9858 106.128 38.3523 113.514 38.3523 121.398V141H14.4886ZM69.0341 141V121.824C69.0341 116 70.0639 109.821 72.1236 103.287C74.2543 96.6818 77.3082 90.3253 81.2855 84.2173C85.3338 78.0383 90.1989 72.6761 95.8807 68.1307L109.517 79.2102C105.043 85.6023 101.136 92.2784 97.7983 99.2386C94.5313 106.128 92.8977 113.514 92.8977 121.398V141H69.0341ZM136.843 291V271.824L208.86 192.989C217.312 183.756 224.272 175.73 229.741 168.912C235.21 162.023 239.258 155.56 241.886 149.523C244.585 143.415 245.934 137.023 245.934 130.347C245.934 122.676 244.087 116.036 240.394 110.425C236.772 104.814 231.8 100.482 225.479 97.4276C219.158 94.3736 212.056 92.8466 204.173 92.8466C195.792 92.8466 188.477 94.5866 182.227 98.0668C176.048 101.476 171.254 106.27 167.844 112.449C164.506 118.628 162.837 125.872 162.837 134.182H137.695C137.695 121.398 140.643 110.176 146.538 100.517C152.433 90.8579 160.458 83.3295 170.614 77.9318C180.842 72.5341 192.312 69.8352 205.025 69.8352C217.809 69.8352 229.137 72.5341 239.009 77.9318C248.881 83.3295 256.623 90.6094 262.234 99.7713C267.844 108.933 270.65 119.125 270.65 130.347C270.65 138.372 269.194 146.22 266.282 153.891C263.441 161.49 258.469 169.977 251.367 179.352C244.336 188.656 234.57 200.02 222.07 213.443L173.065 265.858V267.562H274.485V291H136.843ZM318.484 291V271.824L390.501 192.989C398.952 183.756 405.913 175.73 411.381 168.912C416.85 162.023 420.898 155.56 423.526 149.523C426.225 143.415 427.575 137.023 427.575 130.347C427.575 122.676 425.728 116.036 422.035 110.425C418.413 104.814 413.441 100.482 407.12 97.4276C400.799 94.3736 393.697 92.8466 385.813 92.8466C377.433 92.8466 370.117 94.5866 363.867 98.0668C357.688 101.476 352.894 106.27 349.485 112.449C346.147 118.628 344.478 125.872 344.478 134.182H319.336C319.336 121.398 322.283 110.176 328.178 100.517C334.073 90.8579 342.099 83.3295 352.255 77.9318C362.482 72.5341 373.952 69.8352 386.665 69.8352C399.45 69.8352 410.778 72.5341 420.65 77.9318C430.522 83.3295 438.263 90.6094 443.874 99.7713C449.485 108.933 452.29 119.125 452.29 130.347C452.29 138.372 450.835 146.22 447.923 153.891C445.082 161.49 440.11 169.977 433.008 179.352C425.977 188.656 416.211 200.02 403.711 213.443L354.705 265.858V267.562H456.126V291H318.484ZM500.124 291V271.824L572.141 192.989C580.593 183.756 587.553 175.73 593.022 168.912C598.491 162.023 602.539 155.56 605.167 149.523C607.866 143.415 609.215 137.023 609.215 130.347C609.215 122.676 607.369 116.036 603.675 110.425C600.053 104.814 595.082 100.482 588.761 97.4276C582.44 94.3736 575.337 92.8466 567.454 92.8466C559.073 92.8466 551.758 94.5866 545.508 98.0668C539.329 101.476 534.535 106.27 531.126 112.449C527.788 118.628 526.119 125.872 526.119 134.182H500.977C500.977 121.398 503.924 110.176 509.819 100.517C515.714 90.8579 523.739 83.3295 533.896 77.9318C544.123 72.5341 555.593 69.8352 568.306 69.8352C581.09 69.8352 592.418 72.5341 602.29 77.9318C612.163 83.3295 619.904 90.6094 625.515 99.7713C631.126 108.933 633.931 119.125 633.931 130.347C633.931 138.372 632.475 146.22 629.563 153.891C626.722 161.49 621.751 169.977 614.648 179.352C607.617 188.656 597.852 200.02 585.352 213.443L536.346 265.858V267.562H637.766V291H500.124ZM681.765 291V271.824L753.782 192.989C762.234 183.756 769.194 175.73 774.663 168.912C780.131 162.023 784.18 155.56 786.808 149.523C789.506 143.415 790.856 137.023 790.856 130.347C790.856 122.676 789.009 116.036 785.316 110.425C781.694 104.814 776.722 100.482 770.401 97.4276C764.08 94.3736 756.978 92.8466 749.094 92.8466C740.714 92.8466 733.398 94.5866 727.148 98.0668C720.969 101.476 716.175 106.27 712.766 112.449C709.428 118.628 707.759 125.872 707.759 134.182H682.617C682.617 121.398 685.565 110.176 691.46 100.517C697.354 90.8579 705.38 83.3295 715.536 77.9318C725.763 72.5341 737.234 69.8352 749.947 69.8352C762.731 69.8352 774.059 72.5341 783.931 77.9318C793.803 83.3295 801.545 90.6094 807.156 99.7713C812.766 108.933 815.572 119.125 815.572 130.347C815.572 138.372 814.116 146.22 811.204 153.891C808.363 161.49 803.391 169.977 796.289 179.352C789.258 188.656 779.492 200.02 766.992 213.443L717.987 265.858V267.562H819.407V291H681.765ZM870.224 291L967.809 97.9602V96.2557H855.309V72.8182H995.082V97.5341L897.923 291H870.224ZM1012.1 246.256V224.523L1107.98 72.8182H1123.75V106.483H1113.09L1040.65 221.114V222.818H1169.77V246.256H1012.1ZM1114.8 291V239.651V229.53V72.8182H1139.94V291H1114.8ZM1204.58 246.256V224.523L1300.46 72.8182H1316.23V106.483H1305.58L1233.13 221.114V222.818H1362.25V246.256H1204.58ZM1307.28 291V239.651V229.53V72.8182H1332.42V291H1307.28ZM1397.06 246.256V224.523L1492.94 72.8182H1508.71V106.483H1498.06L1425.61 221.114V222.818H1554.73V246.256H1397.06ZM1499.76 291V239.651V229.53V72.8182H1524.9V291H1499.76ZM1589.54 246.256V224.523L1685.42 72.8182H1701.19V106.483H1690.54L1618.09 221.114V222.818H1747.21V246.256H1589.54ZM1692.24 291V239.651V229.53V72.8182H1717.38V291H1692.24ZM1782.02 246.256V224.523L1877.9 72.8182H1893.67V106.483H1883.02L1810.57 221.114V222.818H1939.69V246.256H1782.02ZM1884.72 291V239.651V229.53V72.8182H1909.86V291H1884.72ZM2049.08 69.8352C2058.03 69.9062 2066.97 71.6108 2075.92 74.9489C2084.87 78.2869 2093.04 83.8267 2100.43 91.5682C2107.81 99.2386 2113.74 109.714 2118.22 122.996C2122.69 136.277 2124.93 152.932 2124.93 172.96C2124.93 192.349 2123.08 209.572 2119.39 224.629C2115.77 239.615 2110.51 252.257 2103.62 262.555C2096.8 272.854 2088.49 280.666 2078.69 285.993C2068.96 291.32 2057.95 293.983 2045.67 293.983C2033.45 293.983 2022.55 291.568 2012.96 286.739C2003.44 281.838 1995.63 275.055 1989.52 266.391C1983.49 257.655 1979.62 247.534 1977.91 236.028H2003.91C2006.25 246.043 2010.9 254.317 2017.86 260.851C2024.89 267.314 2034.16 270.545 2045.67 270.545C2062.5 270.545 2075.78 263.195 2085.51 248.493C2095.31 233.791 2100.21 213.017 2100.21 186.17H2098.51C2094.53 192.136 2089.81 197.286 2084.34 201.618C2078.87 205.95 2072.8 209.288 2066.12 211.632C2059.45 213.976 2052.34 215.148 2044.82 215.148C2032.32 215.148 2020.85 212.058 2010.4 205.879C2000.04 199.629 1991.73 191.071 1985.48 180.205C1979.3 169.267 1976.21 156.767 1976.21 142.705C1976.21 129.352 1979.19 117.136 1985.16 106.057C1991.19 94.9062 1999.64 86.0284 2010.51 79.4233C2021.45 72.8182 2034.3 69.6222 2049.08 69.8352ZM2049.08 93.2727C2040.13 93.2727 2032.07 95.5099 2024.89 99.9844C2017.79 104.388 2012.14 110.354 2007.95 117.882C2003.84 125.339 2001.78 133.614 2001.78 142.705C2001.78 151.795 2003.76 160.07 2007.74 167.527C2011.79 174.913 2017.29 180.808 2024.25 185.212C2031.29 189.544 2039.28 191.71 2048.22 191.71C2054.97 191.71 2061.26 190.396 2067.08 187.768C2072.9 185.07 2077.98 181.412 2082.32 176.795C2086.72 172.108 2090.16 166.817 2092.65 160.922C2095.13 154.956 2096.38 148.741 2096.38 142.278C2096.38 133.756 2094.32 125.766 2090.2 118.308C2086.15 110.851 2080.54 104.814 2073.37 100.197C2066.26 95.581 2058.17 93.2727 2049.08 93.2727ZM2236.28 69.8352C2245.23 69.9062 2254.18 71.6108 2263.13 74.9489C2272.08 78.2869 2280.25 83.8267 2287.63 91.5682C2295.02 99.2386 2300.95 109.714 2305.42 122.996C2309.9 136.277 2312.14 152.932 2312.14 172.96C2312.14 192.349 2310.29 209.572 2306.6 224.629C2302.97 239.615 2297.72 252.257 2290.83 262.555C2284.01 272.854 2275.7 280.666 2265.9 285.993C2256.17 291.32 2245.16 293.983 2232.87 293.983C2220.66 293.983 2209.76 291.568 2200.17 286.739C2190.65 281.838 2182.84 275.055 2176.73 266.391C2170.69 257.655 2166.82 247.534 2165.12 236.028H2191.11C2193.46 246.043 2198.11 254.317 2205.07 260.851C2212.1 267.314 2221.37 270.545 2232.87 270.545C2249.71 270.545 2262.99 263.195 2272.72 248.493C2282.52 233.791 2287.42 213.017 2287.42 186.17H2285.72C2281.74 192.136 2277.02 197.286 2271.55 201.618C2266.08 205.95 2260.01 209.288 2253.33 211.632C2246.65 213.976 2239.55 215.148 2232.02 215.148C2219.52 215.148 2208.05 212.058 2197.61 205.879C2187.24 199.629 2178.93 191.071 2172.68 180.205C2166.5 169.267 2163.41 156.767 2163.41 142.705C2163.41 129.352 2166.4 117.136 2172.36 106.057C2178.4 94.9062 2186.85 86.0284 2197.72 79.4233C2208.66 72.8182 2221.51 69.6222 2236.28 69.8352ZM2236.28 93.2727C2227.33 93.2727 2219.27 95.5099 2212.1 99.9844C2205 104.388 2199.35 110.354 2195.16 117.882C2191.04 125.339 2188.98 133.614 2188.98 142.705C2188.98 151.795 2190.97 160.07 2194.95 167.527C2199 174.913 2204.5 180.808 2211.46 185.212C2218.49 189.544 2226.48 191.71 2235.43 191.71C2242.18 191.71 2248.46 190.396 2254.29 187.768C2260.11 185.07 2265.19 181.412 2269.52 176.795C2273.93 172.108 2277.37 166.817 2279.86 160.922C2282.34 154.956 2283.58 148.741 2283.58 142.278C2283.58 133.756 2281.53 125.766 2277.41 118.308C2273.36 110.851 2267.75 104.814 2260.57 100.197C2253.47 95.581 2245.37 93.2727 2236.28 93.2727ZM2423.49 69.8352C2432.44 69.9062 2441.39 71.6108 2450.34 74.9489C2459.29 78.2869 2467.45 83.8267 2474.84 91.5682C2482.23 99.2386 2488.16 109.714 2492.63 122.996C2497.11 136.277 2499.34 152.932 2499.34 172.96C2499.34 192.349 2497.5 209.572 2493.8 224.629C2490.18 239.615 2484.93 252.257 2478.04 262.555C2471.22 272.854 2462.91 280.666 2453.11 285.993C2443.38 291.32 2432.37 293.983 2420.08 293.983C2407.87 293.983 2396.96 291.568 2387.38 286.739C2377.86 281.838 2370.05 275.055 2363.94 266.391C2357.9 257.655 2354.03 247.534 2352.33 236.028H2378.32C2380.66 246.043 2385.32 254.317 2392.28 260.851C2399.31 267.314 2408.58 270.545 2420.08 270.545C2436.91 270.545 2450.2 263.195 2459.93 248.493C2469.73 233.791 2474.63 213.017 2474.63 186.17H2472.92C2468.95 192.136 2464.22 197.286 2458.75 201.618C2453.28 205.95 2447.21 209.288 2440.54 211.632C2433.86 213.976 2426.76 215.148 2419.23 215.148C2406.73 215.148 2395.26 212.058 2384.82 205.879C2374.45 199.629 2366.14 191.071 2359.89 180.205C2353.71 169.267 2350.62 156.767 2350.62 142.705C2350.62 129.352 2353.6 117.136 2359.57 106.057C2365.61 94.9062 2374.06 86.0284 2384.93 79.4233C2395.86 72.8182 2408.72 69.6222 2423.49 69.8352ZM2423.49 93.2727C2414.54 93.2727 2406.48 95.5099 2399.31 99.9844C2392.21 104.388 2386.56 110.354 2382.37 117.882C2378.25 125.339 2376.19 133.614 2376.19 142.705C2376.19 151.795 2378.18 160.07 2382.16 167.527C2386.2 174.913 2391.71 180.808 2398.67 185.212C2405.7 189.544 2413.69 191.71 2422.64 191.71C2429.39 191.71 2435.67 190.396 2441.5 187.768C2447.32 185.07 2452.4 181.412 2456.73 176.795C2461.13 172.108 2464.58 166.817 2467.06 160.922C2469.55 154.956 2470.79 148.741 2470.79 142.278C2470.79 133.756 2468.73 125.766 2464.61 118.308C2460.56 110.851 2454.95 104.814 2447.78 100.197C2440.68 95.581 2432.58 93.2727 2423.49 93.2727ZM2613.68 293.983C2604.73 293.841 2595.78 292.136 2586.83 288.869C2577.89 285.602 2569.72 280.098 2562.33 272.357C2554.94 264.544 2549.01 253.997 2544.54 240.716C2540.07 227.364 2537.83 210.602 2537.83 190.432C2537.83 171.114 2539.64 153.997 2543.26 139.082C2546.88 124.097 2552.14 111.49 2559.03 101.263C2565.92 90.9645 2574.23 83.152 2583.96 77.8253C2593.76 72.4986 2604.8 69.8352 2617.09 69.8352C2629.31 69.8352 2640.17 72.2855 2649.69 77.1861C2659.28 82.0156 2667.09 88.7628 2673.13 97.4276C2679.16 106.092 2683.07 116.071 2684.85 127.364H2658.85C2656.44 117.562 2651.75 109.43 2644.79 102.967C2637.83 96.5043 2628.6 93.2727 2617.09 93.2727C2600.19 93.2727 2586.87 100.624 2577.14 115.325C2567.48 130.027 2562.62 150.659 2562.54 177.222H2564.25C2568.23 171.185 2572.95 166.036 2578.42 161.774C2583.96 157.442 2590.07 154.104 2596.74 151.76C2603.42 149.416 2610.48 148.244 2617.94 148.244C2630.44 148.244 2641.88 151.369 2652.25 157.619C2662.62 163.798 2670.93 172.357 2677.18 183.294C2683.43 194.161 2686.55 206.625 2686.55 220.688C2686.55 234.182 2683.53 246.54 2677.49 257.761C2671.46 268.912 2662.97 277.79 2652.03 284.395C2641.17 290.929 2628.38 294.125 2613.68 293.983ZM2613.68 270.545C2622.63 270.545 2630.66 268.308 2637.76 263.834C2644.93 259.359 2650.58 253.358 2654.7 245.83C2658.89 238.301 2660.98 229.92 2660.98 220.688C2660.98 211.668 2658.96 203.464 2654.91 196.078C2650.93 188.621 2645.43 182.69 2638.4 178.287C2631.44 173.884 2623.48 171.682 2614.53 171.682C2607.79 171.682 2601.5 173.031 2595.68 175.73C2589.85 178.358 2584.74 181.98 2580.34 186.597C2576 191.213 2572.59 196.504 2570.11 202.47C2567.62 208.365 2566.38 214.58 2566.38 221.114C2566.38 229.778 2568.4 237.875 2572.45 245.403C2576.57 252.932 2582.18 259.004 2589.28 263.621C2596.46 268.237 2604.59 270.545 2613.68 270.545ZM2800.89 293.983C2791.94 293.841 2782.99 292.136 2774.04 288.869C2765.09 285.602 2756.92 280.098 2749.54 272.357C2742.15 264.544 2736.22 253.997 2731.75 240.716C2727.27 227.364 2725.04 210.602 2725.04 190.432C2725.04 171.114 2726.85 153.997 2730.47 139.082C2734.09 124.097 2739.35 111.49 2746.24 101.263C2753.13 90.9645 2761.43 83.152 2771.16 77.8253C2780.97 72.4986 2792.01 69.8352 2804.3 69.8352C2816.51 69.8352 2827.38 72.2855 2836.9 77.1861C2846.48 82.0156 2854.3 88.7628 2860.33 97.4276C2866.37 106.092 2870.28 116.071 2872.05 127.364H2846.06C2843.64 117.562 2838.96 109.43 2832 102.967C2825.04 96.5043 2815.8 93.2727 2804.3 93.2727C2787.39 93.2727 2774.08 100.624 2764.35 115.325C2754.69 130.027 2749.82 150.659 2749.75 177.222H2751.46C2755.43 171.185 2760.16 166.036 2765.62 161.774C2771.16 157.442 2777.27 154.104 2783.95 151.76C2790.63 149.416 2797.69 148.244 2805.15 148.244C2817.65 148.244 2829.08 151.369 2839.45 157.619C2849.82 163.798 2858.13 172.357 2864.38 183.294C2870.63 194.161 2873.76 206.625 2873.76 220.688C2873.76 234.182 2870.74 246.54 2864.7 257.761C2858.66 268.912 2850.18 277.79 2839.24 284.395C2828.37 290.929 2815.59 294.125 2800.89 293.983ZM2800.89 270.545C2809.84 270.545 2817.86 268.308 2824.96 263.834C2832.14 259.359 2837.78 253.358 2841.9 245.83C2846.09 238.301 2848.19 229.92 2848.19 220.688C2848.19 211.668 2846.16 203.464 2842.12 196.078C2838.14 188.621 2832.63 182.69 2825.6 178.287C2818.64 173.884 2810.69 171.682 2801.74 171.682C2794.99 171.682 2788.71 173.031 2782.88 175.73C2777.06 178.358 2771.95 181.98 2767.54 186.597C2763.21 191.213 2759.8 196.504 2757.32 202.47C2754.83 208.365 2753.59 214.58 2753.59 221.114C2753.59 229.778 2755.61 237.875 2759.66 245.403C2763.78 252.932 2769.39 259.004 2776.49 263.621C2783.66 268.237 2791.8 270.545 2800.89 270.545ZM2938.24 72.8182V91.9943C2938.24 97.8182 2937.17 104.033 2935.04 110.638C2932.98 117.172 2929.93 123.528 2925.88 129.707C2921.9 135.815 2917.07 141.142 2911.39 145.688L2897.75 134.608C2902.23 128.216 2906.1 121.575 2909.37 114.686C2912.7 107.726 2914.37 100.304 2914.37 92.4205V72.8182H2938.24ZM2992.78 72.8182V91.9943C2992.78 97.8182 2991.72 104.033 2989.59 110.638C2987.53 117.172 2984.47 123.528 2980.42 129.707C2976.45 135.815 2971.62 141.142 2965.94 145.688L2952.3 134.608C2956.77 128.216 2960.64 121.575 2963.91 114.686C2967.25 107.726 2968.92 100.304 2968.92 92.4205V72.8182H2992.78Z" fill="#006CA9"/>
<path d="M352.94 519.182V529.835H308.835V519.182H352.94ZM322.045 601V507.889C322.045 503.202 323.146 499.295 325.348 496.17C327.55 493.045 330.408 490.702 333.924 489.139C337.44 487.577 341.151 486.795 345.057 486.795C348.146 486.795 350.668 487.044 352.621 487.541C354.574 488.038 356.03 488.5 356.989 488.926L353.366 499.793C352.727 499.58 351.839 499.313 350.703 498.994C349.602 498.674 348.146 498.514 346.335 498.514C342.18 498.514 339.18 499.562 337.333 501.657C335.522 503.752 334.616 506.824 334.616 510.872V601H322.045ZM400.428 602.705C393.042 602.705 386.561 600.947 380.985 597.431C375.446 593.915 371.113 588.997 367.988 582.676C364.899 576.355 363.354 568.969 363.354 560.517C363.354 551.994 364.899 544.555 367.988 538.198C371.113 531.842 375.446 526.906 380.985 523.39C386.561 519.874 393.042 518.116 400.428 518.116C407.814 518.116 414.277 519.874 419.817 523.39C425.392 526.906 429.725 531.842 432.814 538.198C435.939 544.555 437.502 551.994 437.502 560.517C437.502 568.969 435.939 576.355 432.814 582.676C429.725 588.997 425.392 593.915 419.817 597.431C414.277 600.947 407.814 602.705 400.428 602.705ZM400.428 591.412C406.039 591.412 410.655 589.974 414.277 587.097C417.9 584.221 420.581 580.439 422.321 575.751C424.061 571.064 424.931 565.986 424.931 560.517C424.931 555.048 424.061 549.952 422.321 545.229C420.581 540.506 417.9 536.689 414.277 533.777C410.655 530.865 406.039 529.409 400.428 529.409C394.817 529.409 390.201 530.865 386.578 533.777C382.956 536.689 380.275 540.506 378.535 545.229C376.795 549.952 375.925 555.048 375.925 560.517C375.925 565.986 376.795 571.064 378.535 575.751C380.275 580.439 382.956 584.221 386.578 587.097C390.201 589.974 394.817 591.412 400.428 591.412ZM508.254 567.548V519.182H520.825V601H508.254V587.151H507.401C505.484 591.305 502.501 594.839 498.453 597.751C494.404 600.627 489.291 602.065 483.112 602.065C477.998 602.065 473.453 600.947 469.475 598.71C465.498 596.437 462.373 593.028 460.1 588.482C457.828 583.901 456.691 578.131 456.691 571.17V519.182H469.262V570.318C469.262 576.284 470.931 581.043 474.269 584.594C477.643 588.145 481.94 589.92 487.16 589.92C490.285 589.92 493.463 589.121 496.695 587.523C499.962 585.925 502.696 583.475 504.898 580.173C507.135 576.87 508.254 572.662 508.254 567.548ZM543.849 601V519.182H555.994V531.54H556.847C558.338 527.491 561.037 524.207 564.943 521.685C568.849 519.164 573.253 517.903 578.153 517.903C579.077 517.903 580.231 517.921 581.616 517.957C583.001 517.992 584.048 518.045 584.759 518.116V530.901C584.332 530.794 583.356 530.634 581.829 530.421C580.337 530.173 578.757 530.048 577.088 530.048C573.111 530.048 569.56 530.883 566.435 532.552C563.345 534.185 560.895 536.458 559.084 539.37C557.308 542.246 556.42 545.531 556.42 549.224V601H543.849ZM352.088 701.182V711.835H309.688V701.182H352.088ZM322.045 681.58H334.616V759.562C334.616 763.114 335.131 765.777 336.161 767.553C337.227 769.293 338.576 770.464 340.21 771.068C341.879 771.636 343.636 771.92 345.483 771.92C346.868 771.92 348.004 771.849 348.892 771.707C349.78 771.53 350.49 771.388 351.023 771.281L353.58 782.574C352.727 782.893 351.538 783.213 350.011 783.533C348.484 783.888 346.548 784.065 344.205 784.065C340.653 784.065 337.173 783.302 333.764 781.775C330.391 780.248 327.585 777.922 325.348 774.797C323.146 771.672 322.045 767.73 322.045 762.972V681.58ZM389.535 783L364.606 701.182H377.816L395.501 763.824H396.353L413.825 701.182H427.248L444.506 763.611H445.359L463.043 701.182H476.254L451.325 783H438.967L421.069 720.145H419.79L401.893 783H389.535ZM523.328 784.705C515.942 784.705 509.461 782.947 503.886 779.431C498.346 775.915 494.014 770.997 490.889 764.676C487.799 758.355 486.254 750.969 486.254 742.517C486.254 733.994 487.799 726.555 490.889 720.198C494.014 713.842 498.346 708.906 503.886 705.39C509.461 701.874 515.942 700.116 523.328 700.116C530.715 700.116 537.178 701.874 542.718 705.39C548.293 708.906 552.625 713.842 555.715 720.198C558.84 726.555 560.402 733.994 560.402 742.517C560.402 750.969 558.84 758.355 555.715 764.676C552.625 770.997 548.293 775.915 542.718 779.431C537.178 782.947 530.715 784.705 523.328 784.705ZM523.328 773.412C528.939 773.412 533.556 771.974 537.178 769.097C540.8 766.221 543.481 762.439 545.221 757.751C546.961 753.064 547.831 747.986 547.831 742.517C547.831 737.048 546.961 731.952 545.221 727.229C543.481 722.506 540.8 718.689 537.178 715.777C533.556 712.865 528.939 711.409 523.328 711.409C517.718 711.409 513.101 712.865 509.479 715.777C505.857 718.689 503.176 722.506 501.436 727.229C499.695 731.952 498.825 737.048 498.825 742.517C498.825 747.986 499.695 753.064 501.436 757.751C503.176 762.439 505.857 766.221 509.479 769.097C513.101 771.974 517.718 773.412 523.328 773.412ZM637.546 719.506L626.254 722.702C625.543 720.82 624.496 718.991 623.111 717.215C621.761 715.404 619.915 713.913 617.571 712.741C615.227 711.569 612.227 710.983 608.569 710.983C603.562 710.983 599.389 712.137 596.051 714.445C592.749 716.718 591.097 719.612 591.097 723.128C591.097 726.253 592.234 728.721 594.506 730.532C596.779 732.343 600.33 733.852 605.16 735.06L617.305 738.043C624.62 739.818 630.071 742.535 633.658 746.192C637.244 749.815 639.038 754.484 639.038 760.202C639.038 764.889 637.688 769.08 634.989 772.773C632.326 776.466 628.597 779.378 623.803 781.509C619.009 783.639 613.434 784.705 607.077 784.705C598.732 784.705 591.825 782.893 586.357 779.271C580.888 775.649 577.425 770.358 575.969 763.398L587.901 760.415C589.038 764.818 591.186 768.121 594.347 770.322C597.543 772.524 601.715 773.625 606.864 773.625C612.724 773.625 617.376 772.382 620.82 769.896C624.3 767.375 626.04 764.357 626.04 760.841C626.04 758 625.046 755.621 623.058 753.703C621.069 751.75 618.015 750.294 613.896 749.335L600.259 746.139C592.766 744.364 587.262 741.612 583.746 737.883C580.266 734.119 578.526 729.413 578.526 723.767C578.526 719.151 579.822 715.067 582.415 711.516C585.043 707.964 588.612 705.177 593.121 703.153C597.667 701.129 602.816 700.116 608.569 700.116C616.665 700.116 623.022 701.892 627.638 705.443C632.29 708.994 635.593 713.682 637.546 719.506Z" fill="#737370"/>
<path d="M755.744 605.705C748.358 605.705 741.877 603.947 736.302 600.431C730.762 596.915 726.43 591.997 723.305 585.676C720.215 579.355 718.67 571.969 718.67 563.517C718.67 554.994 720.215 547.555 723.305 541.198C726.43 534.842 730.762 529.906 736.302 526.39C741.877 522.874 748.358 521.116 755.744 521.116C763.131 521.116 769.594 522.874 775.134 526.39C780.709 529.906 785.041 534.842 788.131 541.198C791.256 547.555 792.818 554.994 792.818 563.517C792.818 571.969 791.256 579.355 788.131 585.676C785.041 591.997 780.709 596.915 775.134 600.431C769.594 603.947 763.131 605.705 755.744 605.705ZM755.744 594.412C761.355 594.412 765.972 592.974 769.594 590.097C773.216 587.221 775.897 583.439 777.637 578.751C779.377 574.064 780.247 568.986 780.247 563.517C780.247 558.048 779.377 552.952 777.637 548.229C775.897 543.506 773.216 539.689 769.594 536.777C765.972 533.865 761.355 532.409 755.744 532.409C750.134 532.409 745.517 533.865 741.895 536.777C738.273 539.689 735.592 543.506 733.852 548.229C732.112 552.952 731.241 558.048 731.241 563.517C731.241 568.986 732.112 574.064 733.852 578.751C735.592 583.439 738.273 587.221 741.895 590.097C745.517 592.974 750.134 594.412 755.744 594.412ZM824.579 554.781V604H812.008V522.182H824.153V534.966H825.218C827.135 530.811 830.047 527.473 833.954 524.952C837.86 522.395 842.903 521.116 849.082 521.116C854.621 521.116 859.469 522.253 863.623 524.526C867.778 526.763 871.01 530.172 873.318 534.753C875.626 539.298 876.78 545.051 876.78 552.011V604H864.209V552.864C864.209 546.436 862.54 541.429 859.202 537.842C855.864 534.22 851.283 532.409 845.459 532.409C841.447 532.409 837.86 533.279 834.699 535.019C831.574 536.759 829.106 539.298 827.295 542.636C825.484 545.974 824.579 550.023 824.579 554.781ZM934.056 605.705C926.172 605.705 919.372 603.964 913.654 600.484C907.973 596.969 903.587 592.068 900.498 585.783C897.444 579.462 895.917 572.111 895.917 563.73C895.917 555.349 897.444 547.963 900.498 541.571C903.587 535.143 907.884 530.136 913.388 526.55C918.928 522.928 925.391 521.116 932.777 521.116C937.039 521.116 941.247 521.827 945.402 523.247C949.556 524.668 953.338 526.976 956.748 530.172C960.157 533.332 962.873 537.523 964.897 542.743C966.922 547.963 967.934 554.391 967.934 562.026V567.352H904.865V556.486H955.15C955.15 551.869 954.226 547.75 952.38 544.128C950.569 540.506 947.976 537.647 944.603 535.552C941.265 533.457 937.323 532.409 932.777 532.409C927.77 532.409 923.438 533.652 919.78 536.138C916.158 538.588 913.37 541.784 911.417 545.726C909.464 549.668 908.488 553.893 908.488 558.403V565.648C908.488 571.827 909.553 577.065 911.684 581.362C913.85 585.623 916.85 588.872 920.686 591.109C924.521 593.311 928.978 594.412 934.056 594.412C937.358 594.412 940.341 593.95 943.005 593.027C945.703 592.068 948.029 590.648 949.983 588.766C951.936 586.848 953.445 584.469 954.51 581.628L966.655 585.037C965.377 589.156 963.228 592.778 960.21 595.903C957.191 598.993 953.463 601.408 949.024 603.148C944.585 604.852 939.596 605.705 934.056 605.705ZM780.46 722.506L769.168 725.702C768.457 723.82 767.41 721.991 766.025 720.215C764.675 718.404 762.829 716.913 760.485 715.741C758.141 714.569 755.141 713.983 751.483 713.983C746.476 713.983 742.303 715.137 738.965 717.445C735.663 719.718 734.011 722.612 734.011 726.128C734.011 729.253 735.148 731.721 737.42 733.532C739.693 735.343 743.244 736.852 748.074 738.06L760.219 741.043C767.534 742.818 772.985 745.535 776.572 749.192C780.158 752.815 781.952 757.484 781.952 763.202C781.952 767.889 780.602 772.08 777.903 775.773C775.24 779.466 771.511 782.378 766.717 784.509C761.923 786.639 756.348 787.705 749.991 787.705C741.646 787.705 734.739 785.893 729.271 782.271C723.802 778.649 720.339 773.358 718.884 766.398L730.815 763.415C731.952 767.818 734.1 771.121 737.261 773.322C740.457 775.524 744.629 776.625 749.778 776.625C755.638 776.625 760.29 775.382 763.734 772.896C767.214 770.375 768.955 767.357 768.955 763.841C768.955 761 767.96 758.621 765.972 756.703C763.983 754.75 760.929 753.294 756.81 752.335L743.173 749.139C735.68 747.364 730.176 744.612 726.661 740.883C723.18 737.119 721.44 732.413 721.44 726.767C721.44 722.151 722.737 718.067 725.329 714.516C727.957 710.964 731.526 708.177 736.036 706.153C740.581 704.129 745.73 703.116 751.483 703.116C759.58 703.116 765.936 704.892 770.553 708.443C775.205 711.994 778.507 716.682 780.46 722.506ZM835.179 787.705C827.295 787.705 820.495 785.964 814.778 782.484C809.096 778.969 804.71 774.068 801.621 767.783C798.567 761.462 797.04 754.111 797.04 745.73C797.04 737.349 798.567 729.963 801.621 723.571C804.71 717.143 809.007 712.136 814.511 708.55C820.051 704.928 826.514 703.116 833.9 703.116C838.162 703.116 842.37 703.827 846.525 705.247C850.68 706.668 854.461 708.976 857.871 712.172C861.28 715.332 863.996 719.523 866.02 724.743C868.045 729.963 869.057 736.391 869.057 744.026V749.352H805.988V738.486H856.273C856.273 733.869 855.349 729.75 853.503 726.128C851.692 722.506 849.099 719.647 845.726 717.552C842.388 715.457 838.446 714.409 833.9 714.409C828.893 714.409 824.561 715.652 820.903 718.138C817.281 720.588 814.493 723.784 812.54 727.726C810.587 731.668 809.611 735.893 809.611 740.403V747.648C809.611 753.827 810.676 759.065 812.807 763.362C814.973 767.623 817.974 770.872 821.809 773.109C825.644 775.311 830.101 776.412 835.179 776.412C838.481 776.412 841.464 775.95 844.128 775.027C846.827 774.068 849.153 772.648 851.106 770.766C853.059 768.848 854.568 766.469 855.633 763.628L867.778 767.037C866.5 771.156 864.351 774.778 861.333 777.903C858.314 780.993 854.586 783.408 850.147 785.148C845.708 786.852 840.719 787.705 835.179 787.705ZM952.593 704.182L922.337 786H909.553L879.297 704.182H892.934L915.519 769.381H916.371L938.956 704.182H952.593ZM1000.56 787.705C992.676 787.705 985.876 785.964 980.158 782.484C974.477 778.969 970.091 774.068 967.001 767.783C963.947 761.462 962.42 754.111 962.42 745.73C962.42 737.349 963.947 729.963 967.001 723.571C970.091 717.143 974.388 712.136 979.892 708.55C985.432 704.928 991.895 703.116 999.281 703.116C1003.54 703.116 1007.75 703.827 1011.91 705.247C1016.06 706.668 1019.84 708.976 1023.25 712.172C1026.66 715.332 1029.38 719.523 1031.4 724.743C1033.43 729.963 1034.44 736.391 1034.44 744.026V749.352H971.369V738.486H1021.65C1021.65 733.869 1020.73 729.75 1018.88 726.128C1017.07 722.506 1014.48 719.647 1011.11 717.552C1007.77 715.457 1003.83 714.409 999.281 714.409C994.274 714.409 989.942 715.652 986.284 718.138C982.662 720.588 979.874 723.784 977.921 727.726C975.968 731.668 974.991 735.893 974.991 740.403V747.648C974.991 753.827 976.057 759.065 978.188 763.362C980.354 767.623 983.354 770.872 987.19 773.109C991.025 775.311 995.482 776.412 1000.56 776.412C1003.86 776.412 1006.85 775.95 1009.51 775.027C1012.21 774.068 1014.53 772.648 1016.49 770.766C1018.44 768.848 1019.95 766.469 1021.01 763.628L1033.16 767.037C1031.88 771.156 1029.73 774.778 1026.71 777.903C1023.7 780.993 1019.97 783.408 1015.53 785.148C1011.09 786.852 1006.1 787.705 1000.56 787.705ZM1066.13 736.781V786H1053.56V704.182H1065.71V716.966H1066.77C1068.69 712.811 1071.6 709.473 1075.51 706.952C1079.41 704.395 1084.46 703.116 1090.63 703.116C1096.17 703.116 1101.02 704.253 1105.18 706.526C1109.33 708.763 1112.56 712.172 1114.87 716.753C1117.18 721.298 1118.33 727.051 1118.33 734.011V786H1105.76V734.864C1105.76 728.436 1104.09 723.429 1100.75 719.842C1097.42 716.22 1092.84 714.409 1087.01 714.409C1083 714.409 1079.41 715.279 1076.25 717.019C1073.13 718.759 1070.66 721.298 1068.85 724.636C1067.04 727.974 1066.13 732.023 1066.13 736.781Z" fill="#737370"/>
<path d="M2574.09 519.182V529.835H2531.69V519.182H2574.09ZM2544.05 499.58H2556.62V577.562C2556.62 581.114 2557.13 583.777 2558.16 585.553C2559.23 587.293 2560.58 588.464 2562.21 589.068C2563.88 589.636 2565.64 589.92 2567.48 589.92C2568.87 589.92 2570 589.849 2570.89 589.707C2571.78 589.53 2572.49 589.388 2573.02 589.281L2575.58 600.574C2574.73 600.893 2573.54 601.213 2572.01 601.533C2570.48 601.888 2568.55 602.065 2566.2 602.065C2562.65 602.065 2559.17 601.302 2555.76 599.775C2552.39 598.248 2549.59 595.922 2547.35 592.797C2545.15 589.672 2544.05 585.73 2544.05 580.972V499.58ZM2611.53 601L2586.61 519.182H2599.82L2617.5 581.824H2618.35L2635.82 519.182H2649.25L2666.51 581.611H2667.36L2685.04 519.182H2698.25L2673.32 601H2660.97L2643.07 538.145H2641.79L2623.89 601H2611.53ZM2745.33 602.705C2737.94 602.705 2731.46 600.947 2725.89 597.431C2720.35 593.915 2716.01 588.997 2712.89 582.676C2709.8 576.355 2708.25 568.969 2708.25 560.517C2708.25 551.994 2709.8 544.555 2712.89 538.198C2716.01 531.842 2720.35 526.906 2725.89 523.39C2731.46 519.874 2737.94 518.116 2745.33 518.116C2752.71 518.116 2759.18 519.874 2764.72 523.39C2770.29 526.906 2774.63 531.842 2777.71 538.198C2780.84 544.555 2782.4 551.994 2782.4 560.517C2782.4 568.969 2780.84 576.355 2777.71 582.676C2774.63 588.997 2770.29 593.915 2764.72 597.431C2759.18 600.947 2752.71 602.705 2745.33 602.705ZM2745.33 591.412C2750.94 591.412 2755.56 589.974 2759.18 587.097C2762.8 584.221 2765.48 580.439 2767.22 575.751C2768.96 571.064 2769.83 565.986 2769.83 560.517C2769.83 555.048 2768.96 549.952 2767.22 545.229C2765.48 540.506 2762.8 536.689 2759.18 533.777C2755.56 530.865 2750.94 529.409 2745.33 529.409C2739.72 529.409 2735.1 530.865 2731.48 533.777C2727.86 536.689 2725.18 540.506 2723.44 545.229C2721.7 549.952 2720.83 555.048 2720.83 560.517C2720.83 565.986 2721.7 571.064 2723.44 575.751C2725.18 580.439 2727.86 584.221 2731.48 587.097C2735.1 589.974 2739.72 591.412 2745.33 591.412ZM2596.46 719.506L2585.17 722.702C2584.46 720.82 2583.41 718.991 2582.02 717.215C2580.68 715.404 2578.83 713.913 2576.49 712.741C2574.14 711.569 2571.14 710.983 2567.48 710.983C2562.48 710.983 2558.3 712.137 2554.97 714.445C2551.66 716.718 2550.01 719.612 2550.01 723.128C2550.01 726.253 2551.15 728.721 2553.42 730.532C2555.69 732.343 2559.24 733.852 2564.07 735.06L2576.22 738.043C2583.53 739.818 2588.99 742.535 2592.57 746.192C2596.16 749.815 2597.95 754.484 2597.95 760.202C2597.95 764.889 2596.6 769.08 2593.9 772.773C2591.24 776.466 2587.51 779.378 2582.72 781.509C2577.92 783.639 2572.35 784.705 2565.99 784.705C2557.65 784.705 2550.74 782.893 2545.27 779.271C2539.8 775.649 2536.34 770.358 2534.88 763.398L2546.82 760.415C2547.95 764.818 2550.1 768.121 2553.26 770.322C2556.46 772.524 2560.63 773.625 2565.78 773.625C2571.64 773.625 2576.29 772.382 2579.73 769.896C2583.21 767.375 2584.95 764.357 2584.95 760.841C2584.95 758 2583.96 755.621 2581.97 753.703C2579.98 751.75 2576.93 750.294 2572.81 749.335L2559.17 746.139C2551.68 744.364 2546.18 741.612 2542.66 737.883C2539.18 734.119 2537.44 729.413 2537.44 723.767C2537.44 719.151 2538.74 715.067 2541.33 711.516C2543.96 707.964 2547.53 705.177 2552.04 703.153C2556.58 701.129 2561.73 700.116 2567.48 700.116C2575.58 700.116 2581.94 701.892 2586.55 705.443C2591.2 708.994 2594.51 713.682 2596.46 719.506ZM2616.87 783V701.182H2629.45V783H2616.87ZM2623.27 687.545C2620.82 687.545 2618.7 686.711 2616.93 685.042C2615.19 683.373 2614.32 681.366 2614.32 679.023C2614.32 676.679 2615.19 674.673 2616.93 673.004C2618.7 671.335 2620.82 670.5 2623.27 670.5C2625.72 670.5 2627.81 671.335 2629.55 673.004C2631.33 674.673 2632.22 676.679 2632.22 679.023C2632.22 681.366 2631.33 683.373 2629.55 685.042C2627.81 686.711 2625.72 687.545 2623.27 687.545ZM2661.85 701.182L2681.45 734.634L2701.05 701.182H2715.54L2689.12 742.091L2715.54 783H2701.05L2681.45 751.253L2661.85 783H2647.36L2673.35 742.091L2647.36 701.182H2661.85ZM2764.41 784.705C2756.53 784.705 2749.73 782.964 2744.01 779.484C2738.33 775.969 2733.94 771.068 2730.85 764.783C2727.8 758.462 2726.27 751.111 2726.27 742.73C2726.27 734.349 2727.8 726.963 2730.85 720.571C2733.94 714.143 2738.24 709.136 2743.74 705.55C2749.28 701.928 2755.75 700.116 2763.13 700.116C2767.39 700.116 2771.6 700.827 2775.76 702.247C2779.91 703.668 2783.69 705.976 2787.1 709.172C2790.51 712.332 2793.23 716.523 2795.25 721.743C2797.28 726.963 2798.29 733.391 2798.29 741.026V746.352H2735.22V735.486H2785.5C2785.5 730.869 2784.58 726.75 2782.74 723.128C2780.92 719.506 2778.33 716.647 2774.96 714.552C2771.62 712.457 2767.68 711.409 2763.13 711.409C2758.13 711.409 2753.79 712.652 2750.14 715.138C2746.51 717.588 2743.73 720.784 2741.77 724.726C2739.82 728.668 2738.84 732.893 2738.84 737.403V744.648C2738.84 750.827 2739.91 756.065 2742.04 760.362C2744.21 764.623 2747.21 767.872 2751.04 770.109C2754.88 772.311 2759.33 773.412 2764.41 773.412C2767.71 773.412 2770.7 772.95 2773.36 772.027C2776.06 771.068 2778.38 769.648 2780.34 767.766C2782.29 765.848 2783.8 763.469 2784.87 760.628L2797.01 764.037C2795.73 768.156 2793.58 771.778 2790.57 774.903C2787.55 777.993 2783.82 780.408 2779.38 782.148C2774.94 783.852 2769.95 784.705 2764.41 784.705ZM2875.37 719.506L2864.07 722.702C2863.36 720.82 2862.32 718.991 2860.93 717.215C2859.58 715.404 2857.74 713.913 2855.39 712.741C2853.05 711.569 2850.05 710.983 2846.39 710.983C2841.38 710.983 2837.21 712.137 2833.87 714.445C2830.57 716.718 2828.92 719.612 2828.92 723.128C2828.92 726.253 2830.05 728.721 2832.33 730.532C2834.6 732.343 2838.15 733.852 2842.98 735.06L2855.12 738.043C2862.44 739.818 2867.89 742.535 2871.48 746.192C2875.06 749.815 2876.86 754.484 2876.86 760.202C2876.86 764.889 2875.51 769.08 2872.81 772.773C2870.15 776.466 2866.42 779.378 2861.62 781.509C2856.83 783.639 2851.25 784.705 2844.9 784.705C2836.55 784.705 2829.65 782.893 2824.18 779.271C2818.71 775.649 2815.25 770.358 2813.79 763.398L2825.72 760.415C2826.86 764.818 2829.01 768.121 2832.17 770.322C2835.36 772.524 2839.54 773.625 2844.68 773.625C2850.54 773.625 2855.2 772.382 2858.64 769.896C2862.12 767.375 2863.86 764.357 2863.86 760.841C2863.86 758 2862.87 755.621 2860.88 753.703C2858.89 751.75 2855.84 750.294 2851.72 749.335L2838.08 746.139C2830.59 744.364 2825.08 741.612 2821.57 737.883C2818.09 734.119 2816.35 729.413 2816.35 723.767C2816.35 719.151 2817.64 715.067 2820.24 711.516C2822.86 707.964 2826.43 705.177 2830.94 703.153C2835.49 701.129 2840.64 700.116 2846.39 700.116C2854.49 700.116 2860.84 701.892 2865.46 705.443C2870.11 708.994 2873.41 713.682 2875.37 719.506Z" fill="#737370"/>
<path d="M1339.94 519.182V529.835H1295.84V519.182H1339.94ZM1309.05 601V507.889C1309.05 503.202 1310.15 499.295 1312.35 496.17C1314.55 493.045 1317.41 490.702 1320.92 489.139C1324.44 487.577 1328.15 486.795 1332.06 486.795C1335.15 486.795 1337.67 487.044 1339.62 487.541C1341.57 488.038 1343.03 488.5 1343.99 488.926L1340.37 499.793C1339.73 499.58 1338.84 499.313 1337.7 498.994C1336.6 498.674 1335.15 498.514 1333.34 498.514C1329.18 498.514 1326.18 499.562 1324.33 501.657C1322.52 503.752 1321.62 506.824 1321.62 510.872V601H1309.05ZM1357.56 601V519.182H1370.13V601H1357.56ZM1363.95 505.545C1361.5 505.545 1359.39 504.711 1357.61 503.042C1355.87 501.373 1355 499.366 1355 497.023C1355 494.679 1355.87 492.673 1357.61 491.004C1359.39 489.335 1361.5 488.5 1363.95 488.5C1366.4 488.5 1368.5 489.335 1370.24 491.004C1372.01 492.673 1372.9 494.679 1372.9 497.023C1372.9 499.366 1372.01 501.373 1370.24 503.042C1368.5 504.711 1366.4 505.545 1363.95 505.545ZM1460.06 519.182L1429.8 601H1417.02L1386.76 519.182H1400.4L1422.98 584.381H1423.84L1446.42 519.182H1460.06ZM1508.02 602.705C1500.14 602.705 1493.34 600.964 1487.62 597.484C1481.94 593.969 1477.56 589.068 1474.47 582.783C1471.41 576.462 1469.89 569.111 1469.89 560.73C1469.89 552.349 1471.41 544.963 1474.47 538.571C1477.56 532.143 1481.85 527.136 1487.36 523.55C1492.9 519.928 1499.36 518.116 1506.75 518.116C1511.01 518.116 1515.22 518.827 1519.37 520.247C1523.53 521.668 1527.31 523.976 1530.72 527.172C1534.13 530.332 1536.84 534.523 1538.87 539.743C1540.89 544.963 1541.9 551.391 1541.9 559.026V564.352H1478.83V553.486H1529.12C1529.12 548.869 1528.19 544.75 1526.35 541.128C1524.54 537.506 1521.94 534.647 1518.57 532.552C1515.23 530.457 1511.29 529.409 1506.75 529.409C1501.74 529.409 1497.41 530.652 1493.75 533.138C1490.13 535.588 1487.34 538.784 1485.39 542.726C1483.43 546.668 1482.46 550.893 1482.46 555.403V562.648C1482.46 568.827 1483.52 574.065 1485.65 578.362C1487.82 582.623 1490.82 585.872 1494.65 588.109C1498.49 590.311 1502.95 591.412 1508.02 591.412C1511.33 591.412 1514.31 590.95 1516.97 590.027C1519.67 589.068 1522 587.648 1523.95 585.766C1525.9 583.848 1527.41 581.469 1528.48 578.628L1540.62 582.037C1539.35 586.156 1537.2 589.778 1534.18 592.903C1531.16 595.993 1527.43 598.408 1522.99 600.148C1518.55 601.852 1513.56 602.705 1508.02 602.705ZM1339.94 701.182V711.835H1295.84V701.182H1339.94ZM1309.05 783V689.889C1309.05 685.202 1310.15 681.295 1312.35 678.17C1314.55 675.045 1317.41 672.702 1320.92 671.139C1324.44 669.577 1328.15 668.795 1332.06 668.795C1335.15 668.795 1337.67 669.044 1339.62 669.541C1341.57 670.038 1343.03 670.5 1343.99 670.926L1340.37 681.793C1339.73 681.58 1338.84 681.313 1337.7 680.994C1336.6 680.674 1335.15 680.514 1333.34 680.514C1329.18 680.514 1326.18 681.562 1324.33 683.657C1322.52 685.752 1321.62 688.824 1321.62 692.872V783H1309.05ZM1387.43 784.705C1380.04 784.705 1373.56 782.947 1367.99 779.431C1362.45 775.915 1358.11 770.997 1354.99 764.676C1351.9 758.355 1350.35 750.969 1350.35 742.517C1350.35 733.994 1351.9 726.555 1354.99 720.198C1358.11 713.842 1362.45 708.906 1367.99 705.39C1373.56 701.874 1380.04 700.116 1387.43 700.116C1394.81 700.116 1401.28 701.874 1406.82 705.39C1412.39 708.906 1416.72 713.842 1419.81 720.198C1422.94 726.555 1424.5 733.994 1424.5 742.517C1424.5 750.969 1422.94 758.355 1419.81 764.676C1416.72 770.997 1412.39 775.915 1406.82 779.431C1401.28 782.947 1394.81 784.705 1387.43 784.705ZM1387.43 773.412C1393.04 773.412 1397.66 771.974 1401.28 769.097C1404.9 766.221 1407.58 762.439 1409.32 757.751C1411.06 753.064 1411.93 747.986 1411.93 742.517C1411.93 737.048 1411.06 731.952 1409.32 727.229C1407.58 722.506 1404.9 718.689 1401.28 715.777C1397.66 712.865 1393.04 711.409 1387.43 711.409C1381.82 711.409 1377.2 712.865 1373.58 715.777C1369.96 718.689 1367.28 722.506 1365.54 727.229C1363.8 731.952 1362.93 737.048 1362.93 742.517C1362.93 747.986 1363.8 753.064 1365.54 757.751C1367.28 762.439 1369.96 766.221 1373.58 769.097C1377.2 771.974 1381.82 773.412 1387.43 773.412ZM1495.25 749.548V701.182H1507.82V783H1495.25V769.151H1494.4C1492.48 773.305 1489.5 776.839 1485.45 779.751C1481.4 782.627 1476.29 784.065 1470.11 784.065C1465 784.065 1460.45 782.947 1456.48 780.71C1452.5 778.437 1449.37 775.028 1447.1 770.482C1444.83 765.901 1443.69 760.131 1443.69 753.17V701.182H1456.26V752.318C1456.26 758.284 1457.93 763.043 1461.27 766.594C1464.64 770.145 1468.94 771.92 1474.16 771.92C1477.28 771.92 1480.46 771.121 1483.69 769.523C1486.96 767.925 1489.7 765.475 1491.9 762.173C1494.14 758.87 1495.25 754.662 1495.25 749.548ZM1530.85 783V701.182H1542.99V713.54H1543.85C1545.34 709.491 1548.04 706.207 1551.94 703.685C1555.85 701.164 1560.25 699.903 1565.15 699.903C1566.08 699.903 1567.23 699.921 1568.62 699.957C1570 699.992 1571.05 700.045 1571.76 700.116V712.901C1571.33 712.794 1570.36 712.634 1568.83 712.421C1567.34 712.173 1565.76 712.048 1564.09 712.048C1560.11 712.048 1556.56 712.883 1553.43 714.552C1550.35 716.185 1547.89 718.458 1546.08 721.37C1544.31 724.246 1543.42 727.531 1543.42 731.224V783H1530.85ZM1644.61 719.506L1633.32 722.702C1632.61 720.82 1631.56 718.991 1630.18 717.215C1628.83 715.404 1626.98 713.913 1624.64 712.741C1622.3 711.569 1619.29 710.983 1615.64 710.983C1610.63 710.983 1606.46 712.137 1603.12 714.445C1599.82 716.718 1598.17 719.612 1598.17 723.128C1598.17 726.253 1599.3 728.721 1601.57 730.532C1603.85 732.343 1607.4 733.852 1612.23 735.06L1624.37 738.043C1631.69 739.818 1637.14 742.535 1640.73 746.192C1644.31 749.815 1646.11 754.484 1646.11 760.202C1646.11 764.889 1644.76 769.08 1642.06 772.773C1639.39 776.466 1635.67 779.378 1630.87 781.509C1626.08 783.639 1620.5 784.705 1614.15 784.705C1605.8 784.705 1598.89 782.893 1593.42 779.271C1587.96 775.649 1584.49 770.358 1583.04 763.398L1594.97 760.415C1596.11 764.818 1598.25 768.121 1601.41 770.322C1604.61 772.524 1608.78 773.625 1613.93 773.625C1619.79 773.625 1624.44 772.382 1627.89 769.896C1631.37 767.375 1633.11 764.357 1633.11 760.841C1633.11 758 1632.11 755.621 1630.13 753.703C1628.14 751.75 1625.08 750.294 1620.96 749.335L1607.33 746.139C1599.83 744.364 1594.33 741.612 1590.81 737.883C1587.33 734.119 1585.59 729.413 1585.59 723.767C1585.59 719.151 1586.89 715.067 1589.48 711.516C1592.11 707.964 1595.68 705.177 1600.19 703.153C1604.74 701.129 1609.88 700.116 1615.64 700.116C1623.73 700.116 1630.09 701.892 1634.71 705.443C1639.36 708.994 1642.66 713.682 1644.61 719.506Z" fill="#737370"/>
<path d="M2094.09 519.182V529.835H2051.69V519.182H2094.09ZM2064.05 499.58H2076.62V577.562C2076.62 581.114 2077.13 583.777 2078.16 585.553C2079.23 587.293 2080.58 588.464 2082.21 589.068C2083.88 589.636 2085.64 589.92 2087.48 589.92C2088.87 589.92 2090 589.849 2090.89 589.707C2091.78 589.53 2092.49 589.388 2093.02 589.281L2095.58 600.574C2094.73 600.893 2093.54 601.213 2092.01 601.533C2090.48 601.888 2088.55 602.065 2086.2 602.065C2082.65 602.065 2079.17 601.302 2075.76 599.775C2072.39 598.248 2069.59 595.922 2067.35 592.797C2065.15 589.672 2064.05 585.73 2064.05 580.972V499.58ZM2127.33 551.781V601H2114.76V491.909H2127.33V531.966H2128.39C2130.31 527.74 2133.19 524.384 2137.02 521.898C2140.89 519.377 2146.04 518.116 2152.47 518.116C2158.04 518.116 2162.93 519.235 2167.12 521.472C2171.31 523.674 2174.56 527.065 2176.87 531.646C2179.21 536.192 2180.38 541.98 2180.38 549.011V601H2167.81V549.864C2167.81 543.365 2166.12 538.34 2162.75 534.789C2159.41 531.202 2154.78 529.409 2148.85 529.409C2144.73 529.409 2141.03 530.279 2137.77 532.019C2134.54 533.759 2131.98 536.298 2130.1 539.636C2128.25 542.974 2127.33 547.023 2127.33 551.781ZM2203.38 601V519.182H2215.52V531.54H2216.38C2217.87 527.491 2220.57 524.207 2224.47 521.685C2228.38 519.164 2232.78 517.903 2237.68 517.903C2238.61 517.903 2239.76 517.921 2241.15 517.957C2242.53 517.992 2243.58 518.045 2244.29 518.116V530.901C2243.86 530.794 2242.89 530.634 2241.36 530.421C2239.87 530.173 2238.29 530.048 2236.62 530.048C2232.64 530.048 2229.09 530.883 2225.96 532.552C2222.87 534.185 2220.42 536.458 2218.61 539.37C2216.84 542.246 2215.95 545.531 2215.95 549.224V601H2203.38ZM2291 602.705C2283.12 602.705 2276.32 600.964 2270.6 597.484C2264.92 593.969 2260.53 589.068 2257.44 582.783C2254.39 576.462 2252.86 569.111 2252.86 560.73C2252.86 552.349 2254.39 544.963 2257.44 538.571C2260.53 532.143 2264.83 527.136 2270.34 523.55C2275.88 519.928 2282.34 518.116 2289.72 518.116C2293.99 518.116 2298.19 518.827 2302.35 520.247C2306.5 521.668 2310.29 523.976 2313.69 527.172C2317.1 530.332 2319.82 534.523 2321.84 539.743C2323.87 544.963 2324.88 551.391 2324.88 559.026V564.352H2261.81V553.486H2312.1C2312.1 548.869 2311.17 544.75 2309.33 541.128C2307.52 537.506 2304.92 534.647 2301.55 532.552C2298.21 530.457 2294.27 529.409 2289.72 529.409C2284.72 529.409 2280.39 530.652 2276.73 533.138C2273.11 535.588 2270.32 538.784 2268.36 542.726C2266.41 546.668 2265.43 550.893 2265.43 555.403V562.648C2265.43 568.827 2266.5 574.065 2268.63 578.362C2270.8 582.623 2273.8 585.872 2277.63 588.109C2281.47 590.311 2285.92 591.412 2291 591.412C2294.31 591.412 2297.29 590.95 2299.95 590.027C2302.65 589.068 2304.98 587.648 2306.93 585.766C2308.88 583.848 2310.39 581.469 2311.46 578.628L2323.6 582.037C2322.32 586.156 2320.18 589.778 2317.16 592.903C2314.14 595.993 2310.41 598.408 2305.97 600.148C2301.53 601.852 2296.54 602.705 2291 602.705ZM2378.31 602.705C2370.42 602.705 2363.62 600.964 2357.91 597.484C2352.22 593.969 2347.84 589.068 2344.75 582.783C2341.7 576.462 2340.17 569.111 2340.17 560.73C2340.17 552.349 2341.7 544.963 2344.75 538.571C2347.84 532.143 2352.14 527.136 2357.64 523.55C2363.18 519.928 2369.64 518.116 2377.03 518.116C2381.29 518.116 2385.5 518.827 2389.65 520.247C2393.81 521.668 2397.59 523.976 2401 527.172C2404.41 530.332 2407.13 534.523 2409.15 539.743C2411.17 544.963 2412.19 551.391 2412.19 559.026V564.352H2349.12V553.486H2399.4C2399.4 548.869 2398.48 544.75 2396.63 541.128C2394.82 537.506 2392.23 534.647 2388.85 532.552C2385.52 530.457 2381.57 529.409 2377.03 529.409C2372.02 529.409 2367.69 530.652 2364.03 533.138C2360.41 535.588 2357.62 538.784 2355.67 542.726C2353.72 546.668 2352.74 550.893 2352.74 555.403V562.648C2352.74 568.827 2353.8 574.065 2355.94 578.362C2358.1 582.623 2361.1 585.872 2364.94 588.109C2368.77 590.311 2373.23 591.412 2378.31 591.412C2381.61 591.412 2384.59 590.95 2387.26 590.027C2389.96 589.068 2392.28 587.648 2394.23 585.766C2396.19 583.848 2397.7 581.469 2398.76 578.628L2410.91 582.037C2409.63 586.156 2407.48 589.778 2404.46 592.903C2401.44 595.993 2397.71 598.408 2393.28 600.148C2388.84 601.852 2383.85 602.705 2378.31 602.705ZM2071.08 733.781V783H2058.51V701.182H2070.65V713.966H2071.72C2073.63 709.811 2076.55 706.473 2080.45 703.952C2084.36 701.395 2089.4 700.116 2095.58 700.116C2101.12 700.116 2105.97 701.253 2110.12 703.526C2114.28 705.763 2117.51 709.172 2119.82 713.753C2122.12 718.298 2123.28 724.051 2123.28 731.011V783H2110.71V731.864C2110.71 725.436 2109.04 720.429 2105.7 716.842C2102.36 713.22 2097.78 711.409 2091.96 711.409C2087.94 711.409 2084.36 712.279 2081.2 714.019C2078.07 715.759 2075.6 718.298 2073.79 721.636C2071.98 724.974 2071.08 729.023 2071.08 733.781ZM2146.25 783V701.182H2158.82V783H2146.25ZM2152.64 687.545C2150.19 687.545 2148.08 686.711 2146.3 685.042C2144.56 683.373 2143.69 681.366 2143.69 679.023C2143.69 676.679 2144.56 674.673 2146.3 673.004C2148.08 671.335 2150.19 670.5 2152.64 670.5C2155.09 670.5 2157.19 671.335 2158.93 673.004C2160.7 674.673 2161.59 676.679 2161.59 679.023C2161.59 681.366 2160.7 683.373 2158.93 685.042C2157.19 686.711 2155.09 687.545 2152.64 687.545ZM2194.42 733.781V783H2181.85V701.182H2193.99V713.966H2195.06C2196.97 709.811 2199.89 706.473 2203.79 703.952C2207.7 701.395 2212.74 700.116 2218.92 700.116C2224.46 700.116 2229.31 701.253 2233.46 703.526C2237.62 705.763 2240.85 709.172 2243.16 713.753C2245.46 718.298 2246.62 724.051 2246.62 731.011V783H2234.05V731.864C2234.05 725.436 2232.38 720.429 2229.04 716.842C2225.7 713.22 2221.12 711.409 2215.3 711.409C2211.28 711.409 2207.7 712.279 2204.54 714.019C2201.41 715.759 2198.94 718.298 2197.13 721.636C2195.32 724.974 2194.42 729.023 2194.42 733.781ZM2303.89 784.705C2296.01 784.705 2289.21 782.964 2283.49 779.484C2277.81 775.969 2273.42 771.068 2270.34 764.783C2267.28 758.462 2265.75 751.111 2265.75 742.73C2265.75 734.349 2267.28 726.963 2270.34 720.571C2273.42 714.143 2277.72 709.136 2283.23 705.55C2288.77 701.928 2295.23 700.116 2302.62 700.116C2306.88 700.116 2311.08 700.827 2315.24 702.247C2319.39 703.668 2323.18 705.976 2326.59 709.172C2329.99 712.332 2332.71 716.523 2334.74 721.743C2336.76 726.963 2337.77 733.391 2337.77 741.026V746.352H2274.7V735.486H2324.99C2324.99 730.869 2324.06 726.75 2322.22 723.128C2320.41 719.506 2317.81 716.647 2314.44 714.552C2311.1 712.457 2307.16 711.409 2302.62 711.409C2297.61 711.409 2293.28 712.652 2289.62 715.138C2286 717.588 2283.21 720.784 2281.26 724.726C2279.3 728.668 2278.33 732.893 2278.33 737.403V744.648C2278.33 750.827 2279.39 756.065 2281.52 760.362C2283.69 764.623 2286.69 767.872 2290.52 770.109C2294.36 772.311 2298.82 773.412 2303.89 773.412C2307.2 773.412 2310.18 772.95 2312.84 772.027C2315.54 771.068 2317.87 769.648 2319.82 767.766C2321.77 765.848 2323.28 763.469 2324.35 760.628L2336.49 764.037C2335.21 768.156 2333.07 771.778 2330.05 774.903C2327.03 777.993 2323.3 780.408 2318.86 782.148C2314.42 783.852 2309.43 784.705 2303.89 784.705ZM2414.85 719.506L2403.56 722.702C2402.85 720.82 2401.8 718.991 2400.41 717.215C2399.06 715.404 2397.22 713.913 2394.87 712.741C2392.53 711.569 2389.53 710.983 2385.87 710.983C2380.86 710.983 2376.69 712.137 2373.35 714.445C2370.05 716.718 2368.4 719.612 2368.4 723.128C2368.4 726.253 2369.54 728.721 2371.81 730.532C2374.08 732.343 2377.63 733.852 2382.46 735.06L2394.61 738.043C2401.92 739.818 2407.37 742.535 2410.96 746.192C2414.55 749.815 2416.34 754.484 2416.34 760.202C2416.34 764.889 2414.99 769.08 2412.29 772.773C2409.63 776.466 2405.9 779.378 2401.11 781.509C2396.31 783.639 2390.74 784.705 2384.38 784.705C2376.03 784.705 2369.13 782.893 2363.66 779.271C2358.19 775.649 2354.73 770.358 2353.27 763.398L2365.2 760.415C2366.34 764.818 2368.49 768.121 2371.65 770.322C2374.85 772.524 2379.02 773.625 2384.17 773.625C2390.03 773.625 2394.68 772.382 2398.12 769.896C2401.6 767.375 2403.34 764.357 2403.34 760.841C2403.34 758 2402.35 755.621 2400.36 753.703C2398.37 751.75 2395.32 750.294 2391.2 749.335L2377.56 746.139C2370.07 744.364 2364.56 741.612 2361.05 737.883C2357.57 734.119 2355.83 729.413 2355.83 723.767C2355.83 719.151 2357.13 715.067 2359.72 711.516C2362.35 707.964 2365.91 705.177 2370.42 703.153C2374.97 701.129 2380.12 700.116 2385.87 700.116C2393.97 700.116 2400.32 701.892 2404.94 705.443C2409.59 708.994 2412.9 713.682 2414.85 719.506Z" fill="#737370"/>
<rect x="136.5" y="2.5" width="681" height="320" stroke="#737370" stroke-width="5"/>
<rect x="845.5" y="2.5" width="150" height="320" stroke="#737370" stroke-width="5"/>
<rect x="1014.5" y="2.5" width="932" height="320" stroke="#737370" stroke-width="5"/>
<rect x="1965.5" y="2.5" width="551" height="320" stroke="#737370" stroke-width="5"/>
<rect x="2535.5" y="2.5" width="350" height="320" stroke="#737370" stroke-width="5"/>
<path d="M473.464 458.536C475.417 460.488 478.583 460.488 480.536 458.536L512.355 426.716C514.308 424.763 514.308 421.597 512.355 419.645C510.403 417.692 507.237 417.692 505.284 419.645L477 447.929L448.716 419.645C446.763 417.692 443.597 417.692 441.645 419.645C439.692 421.597 439.692 424.763 441.645 426.716L473.464 458.536ZM472 325V455H482V325H472Z" fill="#82D1F5"/>
<path d="M927.464 458.536C929.417 460.488 932.583 460.488 934.536 458.536L966.355 426.716C968.308 424.763 968.308 421.597 966.355 419.645C964.403 417.692 961.237 417.692 959.284 419.645L931 447.929L902.716 419.645C900.763 417.692 897.597 417.692 895.645 419.645C893.692 421.597 893.692 424.763 895.645 426.716L927.464 458.536ZM926 325V455H936V325H926Z" fill="#82D1F5"/>
<path d="M2707.46 458.536C2709.42 460.488 2712.58 460.488 2714.54 458.536L2746.36 426.716C2748.31 424.763 2748.31 421.597 2746.36 419.645C2744.4 417.692 2741.24 417.692 2739.28 419.645L2711 447.929L2682.72 419.645C2680.76 417.692 2677.6 417.692 2675.64 419.645C2673.69 421.597 2673.69 424.763 2675.64 426.716L2707.46 458.536ZM2706 325V455H2716V325H2706Z" fill="#82D1F5"/>
<path d="M1477.46 458.536C1479.42 460.488 1482.58 460.488 1484.54 458.536L1516.36 426.716C1518.31 424.763 1518.31 421.597 1516.36 419.645C1514.4 417.692 1511.24 417.692 1509.28 419.645L1481 447.929L1452.72 419.645C1450.76 417.692 1447.6 417.692 1445.64 419.645C1443.69 421.597 1443.69 424.763 1445.64 426.716L1477.46 458.536ZM1476 325V455H1486V325H1476Z" fill="#82D1F5"/>
<path d="M2237.46 458.536C2239.42 460.488 2242.58 460.488 2244.54 458.536L2276.36 426.716C2278.31 424.763 2278.31 421.597 2276.36 419.645C2274.4 417.692 2271.24 417.692 2269.28 419.645L2241 447.929L2212.72 419.645C2210.76 417.692 2207.6 417.692 2205.64 419.645C2203.69 421.597 2203.69 424.763 2205.64 426.716L2237.46 458.536ZM2236 325V455H2246V325H2236Z" fill="#82D1F5"/>
<path d="M473.464 932.536C475.417 934.488 478.583 934.488 480.536 932.536L512.355 900.716C514.308 898.763 514.308 895.597 512.355 893.645C510.403 891.692 507.237 891.692 505.284 893.645L477 921.929L448.716 893.645C446.763 891.692 443.597 891.692 441.645 893.645C439.692 895.597 439.692 898.763 441.645 900.716L473.464 932.536ZM472 799V929H482V799H472Z" fill="#82D1F5"/>
<path d="M756.176 1372C758.936 1371.9 761.094 1369.58 760.997 1366.82L759.412 1321.85C759.314 1319.09 756.998 1316.93 754.239 1317.03C751.479 1317.13 749.321 1319.44 749.418 1322.2L750.827 1362.18L710.852 1363.59C708.092 1363.69 705.934 1366 706.031 1368.76C706.128 1371.52 708.444 1373.68 711.204 1373.58L756.176 1372ZM473.591 1110.66L752.591 1370.66L759.409 1363.34L480.409 1103.34L473.591 1110.66Z" fill="#82D1F5"/>
<path d="M2213.22 1365.52C2212.41 1368.16 2213.88 1370.96 2216.52 1371.78L2259.51 1385.08C2262.15 1385.89 2264.95 1384.42 2265.77 1381.78C2266.58 1379.14 2265.11 1376.34 2262.47 1375.53L2224.25 1363.7L2236.08 1325.49C2236.89 1322.85 2235.42 1320.05 2232.78 1319.23C2230.14 1318.42 2227.34 1319.89 2226.53 1322.53L2213.22 1365.52ZM2708.67 1102.58L2215.67 1362.58L2220.33 1371.42L2713.33 1111.42L2708.67 1102.58Z" fill="#82D1F5"/>
<path d="M1832.11 1365.94C1831.53 1368.64 1833.24 1371.3 1835.94 1371.89L1879.92 1381.42C1882.62 1382.01 1885.28 1380.3 1885.86 1377.6C1886.45 1374.9 1884.74 1372.24 1882.04 1371.65L1842.95 1363.17L1851.42 1324.08C1852.01 1321.38 1850.3 1318.72 1847.6 1318.14C1844.9 1317.55 1842.24 1319.26 1841.65 1321.96L1832.11 1365.94ZM2238.29 1102.8L1834.29 1362.8L1839.71 1371.2L2243.71 1111.2L2238.29 1102.8Z" fill="#82D1F5"/>
<path d="M1477.46 1370.54C1479.42 1372.49 1482.58 1372.49 1484.54 1370.54L1516.36 1338.72C1518.31 1336.76 1518.31 1333.6 1516.36 1331.64C1514.4 1329.69 1511.24 1329.69 1509.28 1331.64L1481 1359.93L1452.72 1331.64C1450.76 1329.69 1447.6 1329.69 1445.64 1331.64C1443.69 1333.6 1443.69 1336.76 1445.64 1338.72L1477.46 1370.54ZM1476 1107V1367H1486V1107H1476Z" fill="#82D1F5"/>
<path d="M1090 1371.9C1092.71 1372.45 1095.35 1370.7 1095.9 1368L1104.88 1323.9C1105.43 1321.2 1103.69 1318.56 1100.98 1318.01C1098.28 1317.46 1095.64 1319.2 1095.08 1321.91L1087.1 1361.1L1047.9 1353.12C1045.2 1352.57 1042.56 1354.31 1042.01 1357.02C1041.46 1359.72 1043.2 1362.36 1045.91 1362.92L1090 1371.9ZM916.83 1112.76L1086.83 1369.76L1095.17 1364.24L925.17 1107.24L916.83 1112.76Z" fill="#82D1F5"/>
<path d="M927.464 932.536C929.417 934.488 932.583 934.488 934.536 932.536L966.355 900.716C968.308 898.763 968.308 895.597 966.355 893.645C964.403 891.692 961.237 891.692 959.284 893.645L931 921.929L902.716 893.645C900.763 891.692 897.597 891.692 895.645 893.645C893.692 895.597 893.692 898.763 895.645 900.716L927.464 932.536ZM926 799V929H936V799H926Z" fill="#82D1F5"/>
<path d="M2707.46 932.536C2709.42 934.488 2712.58 934.488 2714.54 932.536L2746.36 900.716C2748.31 898.763 2748.31 895.597 2746.36 893.645C2744.4 891.692 2741.24 891.692 2739.28 893.645L2711 921.929L2682.72 893.645C2680.76 891.692 2677.6 891.692 2675.64 893.645C2673.69 895.597 2673.69 898.763 2675.64 900.716L2707.46 932.536ZM2706 799V929H2716V799H2706Z" fill="#82D1F5"/>
<path d="M1477.46 932.536C1479.42 934.488 1482.58 934.488 1484.54 932.536L1516.36 900.716C1518.31 898.763 1518.31 895.597 1516.36 893.645C1514.4 891.692 1511.24 891.692 1509.28 893.645L1481 921.929L1452.72 893.645C1450.76 891.692 1447.6 891.692 1445.64 893.645C1443.69 895.597 1443.69 898.763 1445.64 900.716L1477.46 932.536ZM1476 799V929H1486V799H1476Z" fill="#82D1F5"/>
<path d="M2237.46 932.536C2239.42 934.488 2242.58 934.488 2244.54 932.536L2276.36 900.716C2278.31 898.763 2278.31 895.597 2276.36 893.645C2274.4 891.692 2271.24 891.692 2269.28 893.645L2241 921.929L2212.72 893.645C2210.76 891.692 2207.6 891.692 2205.64 893.645C2203.69 895.597 2203.69 898.763 2205.64 900.716L2237.46 932.536ZM2236 799V929H2246V799H2236Z" fill="#82D1F5"/>
<path d="M382.736 1049.63V1038.76L430.676 962.909H438.56V979.741H433.233L397.011 1037.06V1037.91H461.571V1049.63H382.736ZM434.085 1072V1046.33V1041.26V962.909H446.656V1072H434.085ZM481.533 1072V1062.41L517.541 1022.99C521.767 1018.38 525.247 1014.37 527.982 1010.96C530.716 1007.51 532.74 1004.28 534.054 1001.26C535.404 998.207 536.078 995.011 536.078 991.673C536.078 987.838 535.155 984.518 533.308 981.712C531.497 978.907 529.012 976.741 525.851 975.214C522.691 973.687 519.139 972.923 515.198 972.923C511.007 972.923 507.35 973.793 504.225 975.533C501.135 977.238 498.738 979.635 497.034 982.724C495.365 985.814 494.53 989.436 494.53 993.591H481.959C481.959 987.199 483.433 981.588 486.38 976.759C489.328 971.929 493.34 968.165 498.419 965.466C503.532 962.767 509.267 961.418 515.624 961.418C522.016 961.418 527.68 962.767 532.616 965.466C537.552 968.165 541.423 971.805 544.228 976.386C547.034 980.967 548.436 986.062 548.436 991.673C548.436 995.686 547.708 999.61 546.252 1003.45C544.832 1007.25 542.346 1011.49 538.795 1016.18C535.279 1020.83 530.396 1026.51 524.146 1033.22L499.644 1059.43V1060.28H550.354V1072H481.533Z" fill="#737370"/>
<path d="M2621.29 1072V1062.41L2657.3 1022.99C2661.53 1018.38 2665.01 1014.37 2667.74 1010.96C2670.48 1007.51 2672.5 1004.28 2673.81 1001.26C2675.16 998.207 2675.84 995.011 2675.84 991.673C2675.84 987.838 2674.91 984.518 2673.07 981.712C2671.26 978.907 2668.77 976.741 2665.61 975.214C2662.45 973.687 2658.9 972.923 2654.96 972.923C2650.77 972.923 2647.11 973.793 2643.98 975.533C2640.89 977.238 2638.5 979.635 2636.79 982.724C2635.12 985.814 2634.29 989.436 2634.29 993.591H2621.72C2621.72 987.199 2623.19 981.588 2626.14 976.759C2629.09 971.929 2633.1 968.165 2638.18 965.466C2643.29 962.767 2649.03 961.418 2655.38 961.418C2661.78 961.418 2667.44 962.767 2672.38 965.466C2677.31 968.165 2681.18 971.805 2683.99 976.386C2686.79 980.967 2688.2 986.062 2688.2 991.673C2688.2 995.686 2687.47 999.61 2686.01 1003.45C2684.59 1007.25 2682.11 1011.49 2678.55 1016.18C2675.04 1020.83 2670.16 1026.51 2663.91 1033.22L2639.4 1059.43V1060.28H2690.11V1072H2621.29ZM2748.33 1073.49C2743.86 1073.42 2739.39 1072.57 2734.91 1070.93C2730.44 1069.3 2726.35 1066.55 2722.66 1062.68C2718.97 1058.77 2716 1053.5 2713.76 1046.86C2711.53 1040.18 2710.41 1031.8 2710.41 1021.72C2710.41 1012.06 2711.31 1003.5 2713.12 996.041C2714.94 988.548 2717.56 982.245 2721.01 977.131C2724.45 971.982 2728.61 968.076 2733.47 965.413C2738.37 962.749 2743.9 961.418 2750.04 961.418C2756.15 961.418 2761.58 962.643 2766.34 965.093C2771.13 967.508 2775.04 970.881 2778.06 975.214C2781.08 979.546 2783.03 984.536 2783.92 990.182H2770.92C2769.71 985.281 2767.37 981.215 2763.89 977.984C2760.41 974.752 2755.79 973.136 2750.04 973.136C2741.59 973.136 2734.93 976.812 2730.06 984.163C2725.23 991.513 2722.8 1001.83 2722.77 1015.11H2723.62C2725.61 1012.09 2727.97 1009.52 2730.7 1007.39C2733.47 1005.22 2736.53 1003.55 2739.87 1002.38C2743.2 1001.21 2746.74 1000.62 2750.47 1000.62C2756.72 1000.62 2762.43 1002.18 2767.62 1005.31C2772.8 1008.4 2776.96 1012.68 2780.08 1018.15C2783.21 1023.58 2784.77 1029.81 2784.77 1036.84C2784.77 1043.59 2783.26 1049.77 2780.24 1055.38C2777.22 1060.96 2772.98 1065.39 2767.51 1068.7C2762.08 1071.96 2755.69 1073.56 2748.33 1073.49ZM2748.33 1061.77C2752.81 1061.77 2756.82 1060.65 2760.37 1058.42C2763.96 1056.18 2766.78 1053.18 2768.84 1049.41C2770.94 1045.65 2771.99 1041.46 2771.99 1036.84C2771.99 1032.33 2770.97 1028.23 2768.95 1024.54C2766.96 1020.81 2764.21 1017.85 2760.69 1015.64C2757.21 1013.44 2753.24 1012.34 2748.76 1012.34C2745.39 1012.34 2742.24 1013.02 2739.33 1014.37C2736.42 1015.68 2733.86 1017.49 2731.66 1019.8C2729.5 1022.11 2727.79 1024.75 2726.55 1027.74C2725.31 1030.68 2724.68 1033.79 2724.68 1037.06C2724.68 1041.39 2725.7 1045.44 2727.72 1049.2C2729.78 1052.97 2732.59 1056 2736.14 1058.31C2739.72 1060.62 2743.79 1061.77 2748.33 1061.77Z" fill="#737370"/>
<path d="M2186.15 1076.49C2179.12 1076.49 2172.85 1075.28 2167.35 1072.87C2161.88 1070.45 2157.53 1067.1 2154.3 1062.8C2151.1 1058.47 2149.36 1053.44 2149.08 1047.73H2162.5C2162.79 1051.24 2163.99 1054.28 2166.12 1056.84C2168.26 1059.36 2171.04 1061.31 2174.49 1062.7C2177.93 1064.08 2181.75 1064.77 2185.94 1064.77C2190.63 1064.77 2194.78 1063.96 2198.4 1062.32C2202.03 1060.69 2204.87 1058.42 2206.93 1055.5C2208.99 1052.59 2210.02 1049.22 2210.02 1045.38C2210.02 1041.37 2209.02 1037.84 2207.03 1034.78C2205.05 1031.69 2202.13 1029.28 2198.3 1027.54C2194.46 1025.8 2189.78 1024.93 2184.24 1024.93H2175.5V1013.21H2184.24C2188.57 1013.21 2192.37 1012.43 2195.63 1010.87C2198.94 1009.3 2201.51 1007.1 2203.36 1004.26C2205.24 1001.42 2206.18 998.082 2206.18 994.247C2206.18 990.554 2205.37 987.34 2203.73 984.606C2202.1 981.871 2199.79 979.741 2196.81 978.214C2193.86 976.687 2190.38 975.923 2186.37 975.923C2182.6 975.923 2179.05 976.616 2175.71 978.001C2172.41 979.35 2169.71 981.321 2167.62 983.913C2165.52 986.47 2164.38 989.56 2164.21 993.182H2151.42C2151.64 987.464 2153.36 982.457 2156.59 978.161C2159.82 973.828 2164.05 970.455 2169.27 968.04C2174.52 965.625 2180.29 964.418 2186.58 964.418C2193.33 964.418 2199.12 965.785 2203.94 968.519C2208.77 971.218 2212.49 974.787 2215.08 979.226C2217.67 983.665 2218.97 988.459 2218.97 993.608C2218.97 999.751 2217.35 1004.99 2214.12 1009.32C2210.92 1013.65 2206.57 1016.65 2201.07 1018.32V1019.18C2207.96 1020.31 2213.34 1023.24 2217.21 1027.97C2221.08 1032.65 2223.01 1038.46 2223.01 1045.38C2223.01 1051.31 2221.4 1056.64 2218.17 1061.36C2214.97 1066.05 2210.6 1069.74 2205.06 1072.44C2199.52 1075.14 2193.22 1076.49 2186.15 1076.49ZM2279.53 964.418C2284 964.453 2288.48 965.305 2292.95 966.974C2297.43 968.643 2301.51 971.413 2305.21 975.284C2308.9 979.119 2311.86 984.357 2314.1 990.998C2316.34 997.638 2317.46 1005.97 2317.46 1015.98C2317.46 1025.67 2316.53 1034.29 2314.69 1041.81C2312.88 1049.31 2310.25 1055.63 2306.8 1060.78C2303.39 1065.93 2299.24 1069.83 2294.34 1072.5C2289.47 1075.16 2283.97 1076.49 2277.83 1076.49C2271.72 1076.49 2266.27 1075.28 2261.47 1072.87C2256.71 1070.42 2252.81 1067.03 2249.75 1062.7C2246.74 1058.33 2244.8 1053.27 2243.95 1047.51H2256.95C2258.12 1052.52 2260.44 1056.66 2263.92 1059.93C2267.44 1063.16 2272.07 1064.77 2277.83 1064.77C2286.24 1064.77 2292.88 1061.1 2297.75 1053.75C2302.65 1046.4 2305.1 1036.01 2305.1 1022.59H2304.25C2302.26 1025.57 2299.9 1028.14 2297.16 1030.31C2294.43 1032.48 2291.39 1034.14 2288.05 1035.32C2284.72 1036.49 2281.16 1037.07 2277.4 1037.07C2271.15 1037.07 2265.41 1035.53 2260.19 1032.44C2255.01 1029.31 2250.86 1025.04 2247.73 1019.6C2244.64 1014.13 2243.1 1007.88 2243.1 1000.85C2243.1 994.176 2244.59 988.068 2247.57 982.528C2250.59 976.953 2254.81 972.514 2260.25 969.212C2265.72 965.909 2272.14 964.311 2279.53 964.418ZM2279.53 976.136C2275.06 976.136 2271.03 977.255 2267.44 979.492C2263.89 981.694 2261.06 984.677 2258.97 988.441C2256.91 992.17 2255.88 996.307 2255.88 1000.85C2255.88 1005.4 2256.87 1009.53 2258.86 1013.26C2260.89 1016.96 2263.64 1019.9 2267.12 1022.11C2270.63 1024.27 2274.63 1025.36 2279.1 1025.36C2282.48 1025.36 2285.62 1024.7 2288.53 1023.38C2291.44 1022.03 2293.98 1020.21 2296.15 1017.9C2298.35 1015.55 2300.07 1012.91 2301.32 1009.96C2302.56 1006.98 2303.18 1003.87 2303.18 1000.64C2303.18 996.378 2302.15 992.383 2300.09 988.654C2298.07 984.925 2295.26 981.907 2291.68 979.599C2288.12 977.29 2284.08 976.136 2279.53 976.136Z" fill="#737370"/>
<path d="M1423.38 1073.49C1417.13 1073.49 1411.5 1072.25 1406.5 1069.76C1401.49 1067.28 1397.48 1063.87 1394.46 1059.54C1391.44 1055.2 1389.79 1050.27 1389.51 1044.73H1402.29C1402.79 1049.66 1405.02 1053.75 1409 1056.98C1413.01 1060.17 1417.81 1061.77 1423.38 1061.77C1427.86 1061.77 1431.84 1060.73 1435.32 1058.63C1438.83 1056.53 1441.58 1053.66 1443.57 1050C1445.6 1046.31 1446.61 1042.13 1446.61 1037.48C1446.61 1032.72 1445.56 1028.48 1443.47 1024.75C1441.41 1020.99 1438.56 1018.02 1434.94 1015.86C1431.32 1013.69 1427.18 1012.59 1422.53 1012.55C1419.19 1012.52 1415.77 1013.03 1412.25 1014.1C1408.74 1015.13 1405.84 1016.46 1403.57 1018.09L1391.21 1016.6L1397.82 962.909H1454.49V974.628H1408.89L1405.06 1006.8H1405.7C1407.94 1005.03 1410.74 1003.55 1414.12 1002.38C1417.49 1001.21 1421 1000.62 1424.66 1000.62C1431.34 1000.62 1437.29 1002.22 1442.51 1005.42C1447.76 1008.58 1451.88 1012.91 1454.86 1018.41C1457.88 1023.92 1459.39 1030.2 1459.39 1037.27C1459.39 1044.23 1457.83 1050.44 1454.7 1055.91C1451.62 1061.35 1447.35 1065.64 1441.92 1068.8C1436.49 1071.93 1430.31 1073.49 1423.38 1073.49ZM1478 1049.63V1038.76L1525.94 962.909H1533.82V979.741H1528.49L1492.27 1037.06V1037.91H1556.83V1049.63H1478ZM1529.34 1072V1046.33V1041.26V962.909H1541.92V1072H1529.34Z" fill="#737370"/>
<path d="M895.645 962.909V1072H882.435V976.759H881.795L855.162 994.443V981.02L882.435 962.909H895.645ZM930.428 1072L979.221 975.48V974.628H922.971V962.909H992.857V975.267L944.278 1072H930.428Z" fill="#737370"/>
<path d="M488.489 1482V1462.82C488.489 1457 489.518 1450.82 491.578 1444.29C493.709 1437.68 496.763 1431.33 500.74 1425.22C504.788 1419.04 509.653 1413.68 515.335 1409.13L528.972 1420.21C524.497 1426.6 520.591 1433.28 517.253 1440.24C513.986 1447.13 512.352 1454.51 512.352 1462.4V1482H488.489ZM543.034 1482V1462.82C543.034 1457 544.064 1450.82 546.124 1444.29C548.254 1437.68 551.308 1431.33 555.286 1425.22C559.334 1419.04 564.199 1413.68 569.881 1409.13L583.517 1420.21C579.043 1426.6 575.136 1433.28 571.798 1440.24C568.531 1447.13 566.898 1454.51 566.898 1462.4V1482H543.034ZM586.979 1587.26V1565.52L682.86 1413.82H698.627V1447.48H687.974L615.531 1562.11V1563.82H744.65V1587.26H586.979ZM689.678 1632V1580.65V1570.53V1413.82H714.82V1632H689.678ZM784.574 1632V1612.82L856.591 1533.99C865.042 1524.76 872.002 1516.73 877.471 1509.91C882.94 1503.02 886.988 1496.56 889.616 1490.52C892.315 1484.41 893.664 1478.02 893.664 1471.35C893.664 1463.68 891.818 1457.04 888.125 1451.42C884.502 1445.81 879.531 1441.48 873.21 1438.43C866.889 1435.37 859.787 1433.85 851.903 1433.85C843.522 1433.85 836.207 1435.59 829.957 1439.07C823.778 1442.48 818.984 1447.27 815.575 1453.45C812.237 1459.63 810.568 1466.87 810.568 1475.18H785.426C785.426 1462.4 788.373 1451.18 794.268 1441.52C800.163 1431.86 808.189 1424.33 818.345 1418.93C828.572 1413.53 840.042 1410.84 852.755 1410.84C865.539 1410.84 876.868 1413.53 886.74 1418.93C896.612 1424.33 904.353 1431.61 909.964 1440.77C915.575 1449.93 918.38 1460.12 918.38 1471.35C918.38 1479.37 916.924 1487.22 914.012 1494.89C911.172 1502.49 906.2 1510.98 899.098 1520.35C892.066 1529.66 882.301 1541.02 869.801 1554.44L820.795 1606.86V1608.56H922.216V1632H784.574ZM1042.92 1413.82V1632H1016.5V1441.52H1015.22L961.953 1476.89V1450.04L1016.5 1413.82H1042.92ZM1112.49 1632L1210.07 1438.96V1437.26H1097.57V1413.82H1237.34V1438.53L1140.18 1632H1112.49ZM1342.31 1634.98C1329.81 1634.98 1318.55 1632.5 1308.53 1627.53C1298.52 1622.55 1290.5 1615.74 1284.46 1607.07C1278.42 1598.41 1275.12 1588.53 1274.55 1577.45H1300.12C1301.11 1587.33 1305.59 1595.49 1313.54 1601.96C1321.57 1608.35 1331.16 1611.55 1342.31 1611.55C1351.25 1611.55 1359.21 1609.45 1366.17 1605.26C1373.2 1601.07 1378.71 1595.32 1382.68 1588C1386.73 1580.62 1388.75 1572.27 1388.75 1562.97C1388.75 1553.45 1386.66 1544.96 1382.47 1537.5C1378.35 1529.98 1372.67 1524.05 1365.42 1519.71C1358.18 1515.38 1349.91 1513.18 1340.6 1513.11C1333.93 1513.04 1327.07 1514.07 1320.04 1516.2C1313.01 1518.26 1307.22 1520.92 1302.68 1524.19L1277.96 1521.2L1291.17 1413.82H1404.52V1437.26H1313.33L1305.66 1501.6H1306.94C1311.41 1498.05 1317.02 1495.1 1323.77 1492.76C1330.52 1490.42 1337.55 1489.24 1344.86 1489.24C1358.22 1489.24 1370.11 1492.44 1380.55 1498.83C1391.06 1505.15 1399.3 1513.82 1405.27 1524.83C1411.3 1535.84 1414.32 1548.41 1414.32 1562.54C1414.32 1576.46 1411.2 1588.89 1404.95 1599.83C1398.77 1610.69 1390.25 1619.29 1379.38 1625.61C1368.51 1631.86 1356.16 1634.98 1342.31 1634.98ZM1451.53 1587.26V1565.52L1547.41 1413.82H1563.18V1447.48H1552.52L1480.08 1562.11V1563.82H1609.2V1587.26H1451.53ZM1554.23 1632V1580.65V1570.53V1413.82H1579.37V1632H1554.23ZM1722.85 1634.98C1708.78 1634.98 1696.25 1632.57 1685.24 1627.74C1674.3 1622.91 1665.6 1616.2 1659.14 1607.6C1652.75 1598.94 1649.27 1588.89 1648.7 1577.45H1675.54C1676.11 1584.49 1678.53 1590.56 1682.79 1595.67C1687.05 1600.71 1692.63 1604.62 1699.51 1607.39C1706.4 1610.16 1714.04 1611.55 1722.42 1611.55C1731.79 1611.55 1740.1 1609.91 1747.35 1606.64C1754.59 1603.38 1760.27 1598.83 1764.39 1593.01C1768.51 1587.18 1770.57 1580.44 1770.57 1572.77C1770.57 1564.74 1768.58 1557.67 1764.61 1551.57C1760.63 1545.39 1754.81 1540.56 1747.14 1537.08C1739.47 1533.6 1730.09 1531.86 1719.01 1531.86H1701.54V1508.42H1719.01C1727.68 1508.42 1735.27 1506.86 1741.81 1503.73C1748.41 1500.61 1753.56 1496.2 1757.26 1490.52C1761.02 1484.84 1762.9 1478.16 1762.9 1470.49C1762.9 1463.11 1761.27 1456.68 1758 1451.21C1754.74 1445.74 1750.12 1441.48 1744.15 1438.43C1738.26 1435.37 1731.3 1433.85 1723.27 1433.85C1715.74 1433.85 1708.64 1435.23 1701.97 1438C1695.36 1440.7 1689.96 1444.64 1685.77 1449.83C1681.58 1454.94 1679.31 1461.12 1678.95 1468.36H1653.39C1653.81 1456.93 1657.26 1446.91 1663.72 1438.32C1670.18 1429.66 1678.63 1422.91 1689.07 1418.08C1699.59 1413.25 1711.13 1410.84 1723.7 1410.84C1737.19 1410.84 1748.77 1413.57 1758.43 1419.04C1768.09 1424.44 1775.51 1431.57 1780.69 1440.45C1785.88 1449.33 1788.47 1458.92 1788.47 1469.22C1788.47 1481.5 1785.24 1491.98 1778.78 1500.64C1772.38 1509.31 1763.68 1515.31 1752.68 1518.65V1520.35C1766.45 1522.62 1777.21 1528.48 1784.96 1537.93C1792.7 1547.31 1796.57 1558.92 1796.57 1572.77C1796.57 1584.63 1793.34 1595.28 1786.87 1604.73C1780.48 1614.1 1771.75 1621.49 1760.67 1626.89C1749.59 1632.28 1736.98 1634.98 1722.85 1634.98ZM1909.6 1410.84C1918.55 1410.91 1927.5 1412.61 1936.45 1415.95C1945.4 1419.29 1953.56 1424.83 1960.95 1432.57C1968.34 1440.24 1974.27 1450.71 1978.74 1464C1983.22 1477.28 1985.45 1493.93 1985.45 1513.96C1985.45 1533.35 1983.61 1550.57 1979.91 1565.63C1976.29 1580.62 1971.03 1593.26 1964.15 1603.56C1957.33 1613.85 1949.02 1621.67 1939.22 1626.99C1929.49 1632.32 1918.48 1634.98 1906.19 1634.98C1893.98 1634.98 1883.07 1632.57 1873.49 1627.74C1863.97 1622.84 1856.16 1616.06 1850.05 1607.39C1844.01 1598.65 1840.14 1588.53 1838.44 1577.03H1864.43C1866.77 1587.04 1871.43 1595.32 1878.39 1601.85C1885.42 1608.31 1894.69 1611.55 1906.19 1611.55C1923.02 1611.55 1936.3 1604.19 1946.03 1589.49C1955.84 1574.79 1960.74 1554.02 1960.74 1527.17H1959.03C1955.05 1533.14 1950.33 1538.29 1944.86 1542.62C1939.39 1546.95 1933.32 1550.29 1926.65 1552.63C1919.97 1554.98 1912.87 1556.15 1905.34 1556.15C1892.84 1556.15 1881.37 1553.06 1870.93 1546.88C1860.56 1540.63 1852.25 1532.07 1846 1521.2C1839.82 1510.27 1836.73 1497.77 1836.73 1483.7C1836.73 1470.35 1839.71 1458.14 1845.68 1447.06C1851.72 1435.91 1860.17 1427.03 1871.03 1420.42C1881.97 1413.82 1894.83 1410.62 1909.6 1410.84ZM1909.6 1434.27C1900.65 1434.27 1892.59 1436.51 1885.42 1440.98C1878.31 1445.39 1872.67 1451.35 1868.48 1458.88C1864.36 1466.34 1862.3 1474.61 1862.3 1483.7C1862.3 1492.8 1864.29 1501.07 1868.26 1508.53C1872.31 1515.91 1877.82 1521.81 1884.78 1526.21C1891.81 1530.54 1899.8 1532.71 1908.75 1532.71C1915.5 1532.71 1921.78 1531.4 1927.6 1528.77C1933.43 1526.07 1938.51 1522.41 1942.84 1517.8C1947.24 1513.11 1950.69 1507.82 1953.17 1501.92C1955.66 1495.96 1956.9 1489.74 1956.9 1483.28C1956.9 1474.76 1954.84 1466.77 1950.72 1459.31C1946.67 1451.85 1941.06 1445.81 1933.89 1441.2C1926.79 1436.58 1918.69 1434.27 1909.6 1434.27ZM2027.35 1632V1612.82L2099.36 1533.99C2107.82 1524.76 2114.78 1516.73 2120.24 1509.91C2125.71 1503.02 2129.76 1496.56 2132.39 1490.52C2135.09 1484.41 2136.44 1478.02 2136.44 1471.35C2136.44 1463.68 2134.59 1457.04 2130.9 1451.42C2127.28 1445.81 2122.3 1441.48 2115.98 1438.43C2109.66 1435.37 2102.56 1433.85 2094.68 1433.85C2086.3 1433.85 2078.98 1435.59 2072.73 1439.07C2066.55 1442.48 2061.76 1447.27 2058.35 1453.45C2055.01 1459.63 2053.34 1466.87 2053.34 1475.18H2028.2C2028.2 1462.4 2031.15 1451.18 2037.04 1441.52C2042.94 1431.86 2050.96 1424.33 2061.12 1418.93C2071.35 1413.53 2082.82 1410.84 2095.53 1410.84C2108.31 1410.84 2119.64 1413.53 2129.51 1418.93C2139.39 1424.33 2147.13 1431.61 2152.74 1440.77C2158.35 1449.93 2161.15 1460.12 2161.15 1471.35C2161.15 1479.37 2159.7 1487.22 2156.79 1494.89C2153.94 1502.49 2148.97 1510.98 2141.87 1520.35C2134.84 1529.66 2125.07 1541.02 2112.57 1554.44L2063.57 1606.86V1608.56H2164.99V1632H2027.35ZM2281.43 1634.98C2272.48 1634.84 2263.53 1633.14 2254.58 1629.87C2245.64 1626.6 2237.47 1621.1 2230.08 1613.36C2222.69 1605.54 2216.76 1595 2212.29 1581.72C2207.82 1568.36 2205.58 1551.6 2205.58 1531.43C2205.58 1512.11 2207.39 1495 2211.01 1480.08C2214.63 1465.1 2219.89 1452.49 2226.78 1442.26C2233.67 1431.96 2241.98 1424.15 2251.71 1418.83C2261.51 1413.5 2272.55 1410.84 2284.84 1410.84C2297.06 1410.84 2307.92 1413.29 2317.44 1418.19C2327.03 1423.02 2334.84 1429.76 2340.88 1438.43C2346.91 1447.09 2350.82 1457.07 2352.6 1468.36H2326.6C2324.19 1458.56 2319.5 1450.43 2312.54 1443.97C2305.58 1437.5 2296.35 1434.27 2284.84 1434.27C2267.94 1434.27 2254.62 1441.62 2244.89 1456.33C2235.23 1471.03 2230.37 1491.66 2230.29 1518.22H2232C2235.98 1512.18 2240.7 1507.04 2246.17 1502.77C2251.71 1498.44 2257.82 1495.1 2264.49 1492.76C2271.17 1490.42 2278.23 1489.24 2285.69 1489.24C2298.19 1489.24 2309.63 1492.37 2320 1498.62C2330.37 1504.8 2338.68 1513.36 2344.93 1524.29C2351.18 1535.16 2354.3 1547.62 2354.3 1561.69C2354.3 1575.18 2351.28 1587.54 2345.24 1598.76C2339.21 1609.91 2330.72 1618.79 2319.78 1625.39C2308.92 1631.93 2296.13 1635.12 2281.43 1634.98ZM2281.43 1611.55C2290.38 1611.55 2298.41 1609.31 2305.51 1604.83C2312.68 1600.36 2318.33 1594.36 2322.45 1586.83C2326.64 1579.3 2328.73 1570.92 2328.73 1561.69C2328.73 1552.67 2326.71 1544.46 2322.66 1537.08C2318.68 1529.62 2313.18 1523.69 2306.15 1519.29C2299.19 1514.88 2291.23 1512.68 2282.28 1512.68C2275.54 1512.68 2269.25 1514.03 2263.43 1516.73C2257.6 1519.36 2252.49 1522.98 2248.09 1527.6C2243.75 1532.21 2240.34 1537.5 2237.86 1543.47C2235.37 1549.37 2234.13 1555.58 2234.13 1562.11C2234.13 1570.78 2236.15 1578.87 2240.2 1586.4C2244.32 1593.93 2249.93 1600 2257.03 1604.62C2264.21 1609.24 2272.34 1611.55 2281.43 1611.55ZM2418.78 1413.82V1432.99C2418.78 1438.82 2417.71 1445.03 2415.58 1451.64C2413.52 1458.17 2410.47 1464.53 2406.42 1470.71C2402.44 1476.82 2397.62 1482.14 2391.93 1486.69L2378.3 1475.61C2382.77 1469.22 2386.64 1462.58 2389.91 1455.69C2393.25 1448.73 2394.92 1441.3 2394.92 1433.42V1413.82H2418.78ZM2473.33 1413.82V1432.99C2473.33 1438.82 2472.26 1445.03 2470.13 1451.64C2468.07 1458.17 2465.02 1464.53 2460.97 1470.71C2456.99 1476.82 2452.16 1482.14 2446.48 1486.69L2432.84 1475.61C2437.32 1469.22 2441.19 1462.58 2444.45 1455.69C2447.79 1448.73 2449.46 1441.3 2449.46 1433.42V1413.82H2473.33Z" fill="#FA8F00"/>
</svg>
